<?xml version="1.0" standalone="no"?>
<!DOCTYPE svg PUBLIC "-//W3C//DTD SVG 1.1//EN" "http://www.w3.org/Graphics/SVG/1.1/DTD/svg11.dtd" >
<svg xmlns="http://www.w3.org/2000/svg">
<metadata></metadata>
<defs>
<font id="notesesabold" horiz-adv-x="1075" >
<font-face units-per-em="2048" ascent="1651" descent="-397" />
<missing-glyph horiz-adv-x="573" />
<glyph unicode="&#xfb01;" d="M20 827v158q0 17 11 28t28 11h64v117q0 75 17.5 134t46.5 96t69.5 61t83 33.5t90.5 9.5q39 0 73 -3.5t48 -6.5l14 -3q39 -7 39 -39v-174q0 -38 -39 -35q-42 5 -71 5q-95 0 -95 -91v-104h514q17 0 28 -11t11 -28v-946q0 -17 -11 -28t-28 -11h-198q-17 0 -28 11t-11 28v749 h-277v-749q0 -17 -11 -28t-28 -11h-198q-17 0 -28 11t-11 28v749h-64q-17 0 -28 11t-11 28zM676 1217v198q0 17 11 28t28 11h198q17 0 28 -11t11 -28v-198q0 -17 -11 -28t-28 -11h-198q-17 0 -28 11t-11 28z" />
<glyph unicode="&#xfb02;" d="M20 827v158q0 17 11 28t28 11h64v117q0 75 17.5 134t46.5 96t69.5 61t83 33.5t90.5 9.5q39 0 73 -3.5t48 -6.5l14 -3q39 -7 39 -39v-174q0 -38 -39 -35q-42 5 -71 5q-95 0 -95 -91v-104h105q17 0 28 -11t11 -28v-158q0 -17 -11 -28t-28 -11h-105v-749q0 -17 -11 -28 t-28 -11h-198q-17 0 -28 11t-11 28v749h-64q-17 0 -28 11t-11 28zM676 39v1376q0 17 11 28t28 11h198q17 0 28 -11t11 -28v-1376q0 -17 -11 -28t-28 -11h-198q-17 0 -28 11t-11 28z" />
<glyph horiz-adv-x="0" />
<glyph horiz-adv-x="0" />
<glyph horiz-adv-x="682" />
<glyph unicode="&#xd;" horiz-adv-x="573" />
<glyph unicode=" "  horiz-adv-x="573" />
<glyph unicode="&#x09;" horiz-adv-x="573" />
<glyph unicode="&#xa0;" horiz-adv-x="573" />
<glyph unicode="!" horiz-adv-x="522" d="M113 39v219q0 17 11 28t28 11h219q17 0 28 -11t11 -28v-219q0 -17 -11 -28t-28 -11h-219q-17 0 -28 11t-11 28zM123 520v895q0 17 11 28t28 11h198q17 0 28 -11t11 -28v-895q0 -17 -11 -28t-28 -11h-198q-17 0 -28 11t-11 28z" />
<glyph unicode="&#x22;" horiz-adv-x="880" d="M102 848v567q0 17 11 28t28 11h199q17 0 28 -11t11 -28v-567q0 -17 -11 -28t-28 -11h-199q-17 0 -28 11t-11 28zM502 848v567q0 17 11 28t28 11h198q17 0 28 -11t11 -28v-567q0 -17 -11 -28t-28 -11h-198q-17 0 -28 11t-11 28z" />
<glyph unicode="#" horiz-adv-x="1024" d="M41 346v158q0 17 11 28t28 11h74v368h-74q-17 0 -28 11t-11 28v158q0 17 11 28t28 11h74v268q0 17 11 28t28 11h198q17 0 28 -11t11 -28v-268h164v268q0 17 11 28t28 11h198q17 0 28 -11t11 -28v-268h74q17 0 28 -11t11 -28v-158q0 -17 -11 -28t-28 -11h-74v-368h74 q17 0 28 -11t11 -28v-158q0 -17 -11 -28t-28 -11h-74v-268q0 -17 -11 -28t-28 -11h-198q-17 0 -28 11t-11 28v268h-164v-268q0 -17 -11 -28t-28 -11h-198q-17 0 -28 11t-11 28v268h-74q-17 0 -28 11t-11 28zM430 543h164v368h-164v-368z" />
<glyph unicode="$" horiz-adv-x="1024" d="M72 63v187q0 17 11 25.5t30 5.5q231 -45 348 -45q116 0 165.5 38.5t49.5 128.5v41q0 62 -40.5 95.5t-119.5 60.5l-174 57q-260 84 -260 361v51q0 160 79.5 255.5t217.5 129.5v207q0 17 11 28t28 11h198q17 0 28 -11t11 -28v-191q56 -4 115.5 -12t91.5 -14l31 -6 q39 -7 39 -39v-180q0 -36 -39 -33q-207 33 -340 33q-103 0 -149 -37t-46 -113v-31q0 -48 31 -78.5t90 -50.5l174 -57q52 -17 91.5 -35.5t80.5 -49.5t67.5 -70.5t43 -98.5t16.5 -133v-62q0 -185 -73 -282t-224 -127v-201q0 -17 -11 -28t-28 -11h-198q-17 0 -28 11t-11 28v191 q-60 5 -127 15.5t-104 18.5l-37 7q-39 7 -39 38z" />
<glyph unicode="%" horiz-adv-x="2191" d="M123 1034v39q0 184 112.5 293t303.5 109t303 -109t112 -293v-39q0 -184 -112 -292.5t-303 -108.5t-303.5 108.5t-112.5 292.5zM399 1024q0 -73 34 -114.5t106 -41.5q139 0 139 156v59q0 156 -139 156q-72 0 -106 -41.5t-34 -114.5v-59zM612 39l670 1376q20 39 45 39h223 q18 0 27 -12t2 -27l-670 -1376q-19 -39 -45 -39h-223q-18 0 -27 12t-2 27zM1237 381v39q0 184 112.5 292.5t303.5 108.5t303 -108.5t112 -292.5v-39q0 -184 -112 -292.5t-303 -108.5t-303.5 109t-112.5 292zM1513 371q0 -73 34 -114.5t106 -41.5q139 0 139 156v59 q0 156 -139 156q-72 0 -106 -41.5t-34 -114.5v-59z" />
<glyph unicode="&#x26;" horiz-adv-x="1398" d="M123 367v63q0 64 19 118.5t55.5 98t72.5 74t88 65.5q-68 74 -105.5 141.5t-37.5 151.5v54q0 154 106.5 248t288.5 94q188 0 292 -93t104 -249v-43q0 -104 -62.5 -187.5t-179.5 -167.5l176 -196q12 61 12 137v125q0 17 11 28t28 11h199q17 0 28 -11t11 -28v-125 q0 -209 -82 -363l242 -264q10 -10 10 -22q0 -11 -8.5 -19t-22.5 -8h-270q-25 0 -62 37l-63 69q-168 -126 -381 -126q-226 0 -347.5 97t-121.5 290zM399 387q0 -74 47 -118t146 -44q126 0 213 68l-289 321q-117 -89 -117 -184v-43zM492 1090q0 -31 17 -64t36 -56t61 -67 q66 55 96.5 100.5t30.5 96.5v18q0 46 -33.5 78.5t-89.5 32.5q-60 0 -89 -32.5t-29 -78.5v-28z" />
<glyph unicode="'" horiz-adv-x="481" d="M102 848v567q0 17 11 28t28 11h199q17 0 28 -11t11 -28v-567q0 -17 -11 -28t-28 -11h-199q-17 0 -28 11t-11 28z" />
<glyph unicode="(" horiz-adv-x="665" d="M123 225v1004q0 254 119 372.5t356 118.5h12q35 0 35 -34v-152q0 -39 -35 -39h-16q-98 0 -146.5 -62t-48.5 -204v-1004q0 -142 48.5 -204t146.5 -62h16q35 0 35 -39v-151q0 -35 -35 -35h-12q-237 0 -356 118.5t-119 372.5z" />
<glyph unicode=")" horiz-adv-x="665" d="M20 -80q0 39 35 39h17q98 0 146 62t48 204v1004q0 142 -48 204t-146 62h-17q-35 0 -35 39v152q0 34 35 34h13q237 0 356 -118.5t119 -372.5v-1004q0 -254 -119 -372.5t-356 -118.5h-13q-35 0 -35 35v151z" />
<glyph unicode="*" horiz-adv-x="1097" d="M118.5 1120q-4.5 15 4.5 29l92 141q9 14 24 18.5t29 -3.5l160 -99v209q0 17 11 28t28 11h168q17 0 28 -11t11 -28v-209l160 101q14 8 29 3.5t24 -18.5l90 -141q9 -14 4.5 -29t-18.5 -24l-224 -142l179 -194q22 -26 -5 -53l-122 -115q-12 -12 -28.5 -10t-27.5 14l-184 201 l-189 -203q-12 -12 -27.5 -14t-27.5 10l-123 117q-28 29 -4 53l180 194l-223 140q-14 9 -18.5 24z" />
<glyph unicode="+" d="M102 633v168q0 17 11 28t28 11h269v288q0 17 11 28t28 11h178q17 0 28 -11t11 -28v-288h268q17 0 28 -11t11 -28v-168q0 -17 -11 -28t-28 -11h-268v-289q0 -17 -11 -28t-28 -11h-178q-17 0 -28 11t-11 28v289h-269q-17 0 -28 11t-11 28z" />
<glyph unicode="," horiz-adv-x="501" d="M102 39v219q0 17 11 28t28 11h219q17 0 28 -11t11 -28v-238l-96 -350q-10 -39 -43 -39h-102q-18 0 -27 10t-6 27l59 332h-43q-17 0 -28 11t-11 28z" />
<glyph unicode="-" horiz-adv-x="716" d="M102 633v168q0 17 11 28t28 11h434q17 0 28 -11t11 -28v-168q0 -17 -11 -28t-28 -11h-434q-17 0 -28 11t-11 28z" />
<glyph unicode="." horiz-adv-x="501" d="M102 39v219q0 17 11 28t28 11h219q17 0 28 -11t11 -28v-219q0 -17 -11 -28t-28 -11h-219q-17 0 -28 11t-11 28z" />
<glyph unicode="/" horiz-adv-x="870" d="M94 43l398 1374q10 37 43 37h210q17 0 26.5 -13t4.5 -30l-397 -1374q-10 -37 -43 -37h-211q-17 0 -26.5 13t-4.5 30z" />
<glyph unicode="0" horiz-adv-x="1024" d="M72 451v553q0 229 109.5 350t330.5 121t330.5 -121t109.5 -350v-553q0 -229 -109.5 -350t-330.5 -121t-330.5 121t-109.5 350zM348 461q0 -115 37.5 -170t126.5 -55t126.5 55t37.5 170v532q0 115 -37.5 170.5t-126.5 55.5t-126.5 -55.5t-37.5 -170.5v-532z" />
<glyph unicode="1" horiz-adv-x="1024" d="M92 1137v186q0 37 37 47l301 84h227q17 0 28 -11t11 -28v-1159h228q17 0 28 -11t11 -28v-178q0 -17 -11 -28t-28 -11h-772q-17 0 -28 11t-11 28v178q0 17 11 28t28 11h268v913l-289 -63q-17 -3 -28 5.5t-11 25.5z" />
<glyph unicode="2" horiz-adv-x="1024" d="M82 39v283q0 82 19.5 150.5t53 115.5t76 86t90 66.5t95.5 51.5t90.5 46.5t76 46t53 54.5t19.5 69v71q0 67 -46.5 103.5t-137.5 36.5q-55 0 -142.5 -8.5t-147.5 -16.5l-60 -8q-39 -3 -39 31v178q0 18 10.5 30t28.5 13q202 37 354 37q457 0 457 -396v-71q0 -73 -19.5 -132 t-53 -99.5t-76.5 -73.5t-90.5 -58t-95 -48.5t-90.5 -49.5t-76.5 -56t-53 -74t-19.5 -98v-63h535q17 0 28 -11t11 -28v-178q0 -17 -11 -28t-28 -11h-772q-17 0 -28 11t-11 28z" />
<glyph unicode="3" horiz-adv-x="1024" d="M61 59v183q0 33 39 30q217 -36 346 -36q110 0 159.5 38.5t49.5 116.5v76q0 83 -54.5 119.5t-162.5 36.5h-215q-17 0 -28 11t-11 28v178q0 17 11 28t28 11h174q116 0 166.5 38t50.5 125v43q0 70 -40.5 102t-145.5 32q-58 0 -140 -8.5t-135 -17.5l-53 -9q-39 -3 -39 30v181 q0 36 39 39q174 41 342 41q107 0 186 -18.5t140 -60t92 -114.5t31 -178v-55q0 -190 -156 -281q197 -86 197 -305v-88q0 -88 -23.5 -156.5t-65 -113t-103 -73t-131.5 -40.5t-156 -12q-71 0 -159.5 10t-141.5 20l-52 10q-39 3 -39 39z" />
<glyph unicode="4" horiz-adv-x="1024" d="M20 315v217l238 885q10 37 43 37h277q17 0 26 -13t4 -30l-270 -879h276v453q0 17 11 28t28 11h199q17 0 28 -11t11 -28v-453h84q17 0 28 -10.5t11 -27.5v-179q0 -17 -11 -28t-28 -11h-84v-237q0 -17 -11 -28t-28 -11h-199q-17 0 -28 11t-11 28v237h-555q-17 0 -28 11 t-11 28z" />
<glyph unicode="5" horiz-adv-x="1024" d="M82 61v181q0 33 39 30q213 -36 346 -36q121 0 165 46t44 144v111q0 78 -31.5 107.5t-97.5 29.5q-26 0 -53 -6t-44.5 -12t-44.5 -22t-37 -22t-38.5 -27t-32.5 -24h-176q-17 0 -28 11t-11 28v815q0 17 11 28t28 11h792q17 0 28 -11t11 -28v-178q0 -17 -11 -28t-28 -11h-555 v-332q109 64 232 64q362 0 362 -389v-135q0 -231 -122.5 -328.5t-358.5 -97.5q-74 0 -161.5 10t-137.5 20l-51 10q-39 3 -39 41z" />
<glyph unicode="6" horiz-adv-x="1024" d="M72 410v532q0 263 136.5 398t375.5 135q53 0 120 -6.5t108 -13.5l40 -7q39 -3 39 -43v-176q0 -36 -39 -33q-172 23 -258 23q-246 0 -246 -236v-117q106 64 244 64q360 0 360 -385v-135q0 -204 -112 -317t-328 -113q-212 0 -326 111.5t-114 318.5zM348 416 q0 -92 39.5 -136t124.5 -44q88 0 126 46t38 134v114q0 78 -37 111t-107 33q-74 0 -184 -58v-200z" />
<glyph unicode="7" horiz-adv-x="1024" d="M51 1237v178q0 17 11 28t28 11h834q17 0 28 -11t11 -28v-217l-453 -1161q-13 -37 -43 -37h-268q-17 0 -24 13.5t-1 31.5l477 1153h-561q-17 0 -28 11t-11 28z" />
<glyph unicode="8" horiz-adv-x="1024" d="M51 391v53q0 223 176 318q-155 86 -155 289v45q0 187 121 283t319 96t319 -96t121 -283v-45q0 -203 -155 -289q176 -95 176 -318v-53q0 -204 -124.5 -307.5t-336.5 -103.5t-336.5 103.5t-124.5 307.5zM328 418q0 -85 48.5 -133.5t135.5 -48.5t135.5 48.5t48.5 133.5v33 q0 82 -44 133t-140 51t-140 -51t-44 -133v-33zM348 1049q0 -70 40 -114t124 -44t124 44t40 114v14q0 69 -39.5 112.5t-124.5 43.5t-124.5 -43.5t-39.5 -112.5v-14z" />
<glyph unicode="9" horiz-adv-x="1024" d="M72 934v110q0 205 112 318t328 113q219 0 329.5 -113t110.5 -318v-552q0 -270 -125 -391t-366 -121q-50 0 -117 6.5t-109 13.5l-42 6q-39 8 -39 39v180q0 36 39 33q172 -22 258 -22q120 0 172.5 61.5t52.5 183.5v125q-106 -61 -238 -61q-187 0 -276.5 103.5t-89.5 285.5z M348 950q0 -149 144 -149q73 0 184 47v190q0 92 -39.5 136.5t-124.5 44.5q-88 0 -126 -46.5t-38 -134.5v-88z" />
<glyph unicode=":" horiz-adv-x="501" d="M102 39v219q0 17 11 28t28 11h219q17 0 28 -11t11 -28v-219q0 -17 -11 -28t-28 -11h-219q-17 0 -28 11t-11 28zM102 766v219q0 17 11 28t28 11h219q17 0 28 -11t11 -28v-219q0 -17 -11 -28t-28 -11h-219q-17 0 -28 11t-11 28z" />
<glyph unicode=";" horiz-adv-x="501" d="M102 39v219q0 17 11 28t28 11h219q17 0 28 -11t11 -28v-238l-96 -350q-10 -39 -43 -39h-102q-18 0 -27 10t-6 27l59 332h-43q-17 0 -28 11t-11 28zM102 766v219q0 17 11 28t28 11h219q17 0 28 -11t11 -28v-219q0 -17 -11 -28t-28 -11h-219q-17 0 -28 11t-11 28z" />
<glyph unicode="&#x3c;" d="M102 627v180q0 31 37 49l793 354q15 8 28 -0.5t13 -25.5v-205q0 -27 -39 -43l-531 -219l531 -219q39 -16 39 -43v-205q0 -17 -13 -25.5t-28 -1.5l-793 355q-37 18 -37 49z" />
<glyph unicode="=" d="M102 387v168q0 17 11 28t28 11h793q17 0 28 -11t11 -28v-168q0 -17 -11 -28t-28 -11h-793q-17 0 -28 11t-11 28zM102 879v168q0 17 11 27.5t28 10.5h793q17 0 28 -10.5t11 -27.5v-168q0 -17 -11 -28t-28 -11h-793q-17 0 -28 11t-11 28z" />
<glyph unicode="&#x3e;" d="M102 250v205q0 27 39 43l531 219l-531 219q-39 16 -39 43v205q0 17 13 25.5t28 0.5l793 -354q37 -18 37 -49v-180q0 -31 -37 -49l-793 -355q-15 -7 -28 1.5t-13 25.5z" />
<glyph unicode="?" horiz-adv-x="931" d="M82 1217v180q0 17 10.5 27t28.5 12q161 39 313 39q184 0 289.5 -79.5t105.5 -252.5v-31q0 -186 -131 -291l-49 -39q-31 -25 -44 -37t-31 -35.5t-24.5 -52.5t-6.5 -69v-68q0 -17 -11 -28t-28 -11h-199q-17 0 -28 11t-11 28v68q0 97 17.5 163t46.5 104.5t80 76.5l53 39 q2 1 14.5 10.5t15 11.5t13.5 10.5t13.5 12t10.5 12t10 14.5t6 14.5t5.5 18t1.5 19.5v20q0 105 -152 105q-47 0 -117 -8.5t-116 -16.5l-47 -8q-39 -3 -39 31zM256 39v219q0 17 11 28t28 11h219q17 0 28 -11t11 -28v-219q0 -17 -11 -28t-28 -11h-219q-17 0 -28 11t-11 28z" />
<glyph unicode="@" horiz-adv-x="2048" d="M123 471v82q0 434 232 678t669 244q220 0 392 -59t283 -167.5t168.5 -258.5t57.5 -335v-82q0 -153 -35.5 -266t-100.5 -179t-149.5 -97t-189.5 -31q-199 0 -281 137q-151 -117 -301 -117q-145 0 -225 85t-80 227q0 51 8 98l45 246q33 178 135.5 263t301.5 85 q81 0 181.5 -18t161.5 -36l60 -18q35 -11 29 -47l-80 -454q-8 -58 -8 -86q0 -119 78 -119q69 0 111 83t42 244v82q0 553 -604 553q-132 0 -235.5 -33t-172 -91.5t-113.5 -142t-64 -179t-19 -209.5v-82q0 -73 9.5 -138t31 -127.5t54 -114.5t81 -96t109.5 -74t142 -47t177 -17 h299q17 0 28 -11t11 -28v-189q0 -17 -11 -28t-28 -11h-299q-441 0 -671 226t-230 655zM844 377q0 -111 100 -111q75 0 178 47q0 5 -1 15.5t-1 15.5q0 57 13 127l51 289q-92 18 -129 18q-82 0 -120.5 -38t-51.5 -115l-33 -185q-6 -35 -6 -63z" />
<glyph unicode="A" horiz-adv-x="1239" d="M33 41l405 1374q5 17 17.5 28t29.5 11h269q17 0 29.5 -11t17.5 -28l405 -1374q2 -7 2 -12q0 -9 -5 -17q-8 -12 -25 -12h-224q-33 0 -43 39l-57 207h-469l-57 -207q-10 -39 -43 -39h-224q-17 0 -25 12q-5 7 -5 17q0 5 2 12zM457 502h325l-161 590z" />
<glyph unicode="B" horiz-adv-x="1228" d="M123 39v1376q0 17 11 28t28 11h452q230 0 350.5 -94.5t120.5 -304.5q0 -214 -167 -307q208 -87 208 -338q0 -217 -120 -313.5t-351 -96.5h-493q-17 0 -28 11t-11 28zM399 246h236q108 0 161.5 42.5t53.5 141.5q0 102 -55.5 143t-159.5 41h-236v-368zM399 860h195 q112 0 163.5 40.5t51.5 133.5q0 99 -52.5 136.5t-162.5 37.5h-195v-348z" />
<glyph unicode="C" horiz-adv-x="972" d="M123 512v430q0 257 128.5 395t373.5 138q48 0 105 -5.5t90 -11.5l32 -6q39 -3 39 -41v-182q0 -36 -41 -33q-133 16 -225 16q-123 0 -174.5 -76t-51.5 -214v-390q0 -140 52.5 -215t183.5 -75q41 0 95 4.5t88 9.5l34 4q39 3 39 -33v-184q0 -38 -39 -41q-118 -22 -227 -22 q-245 0 -373.5 138t-128.5 394z" />
<glyph unicode="D" horiz-adv-x="1249" d="M123 39v1376q0 17 11 28t28 11h463q245 0 373 -137.5t128 -394.5v-390q0 -257 -128 -394.5t-373 -137.5h-463q-17 0 -28 11t-11 28zM399 256h226q63 0 108 22t70 63.5t36 93t11 118.5v348q0 67 -11 118.5t-36 93t-70 63.5t-108 22h-226v-942z" />
<glyph unicode="E" horiz-adv-x="1034" d="M123 39v1376q0 17 11 28t28 11h751q17 0 28 -11t11 -28v-178q0 -17 -11 -28t-28 -11h-514v-328h473q17 0 28 -11t11 -28v-178q0 -17 -11 -28t-28 -11h-473v-358h514q17 0 28 -11t11 -28v-178q0 -17 -11 -28t-28 -11h-751q-17 0 -28 11t-11 28z" />
<glyph unicode="F" horiz-adv-x="1034" d="M123 39v1376q0 17 11 28t28 11h751q17 0 28 -11t11 -28v-178q0 -17 -11 -28t-28 -11h-514v-328h473q17 0 28 -11t11 -28v-178q0 -17 -11 -28t-28 -11h-473v-575q0 -17 -11 -28t-28 -11h-198q-17 0 -28 11t-11 28z" />
<glyph unicode="G" horiz-adv-x="1249" d="M123 512v389q0 276 139 425t404 149q97 0 192.5 -15.5t141.5 -31.5l47 -15q38 -6 38 -41v-174q0 -39 -41 -33q-231 54 -368 54q-147 0 -212 -81.5t-65 -236.5v-369q0 -296 234 -296q54 0 108 9t81 18l28 9v301h-207q-17 0 -28 11t-11 28v179q0 17 11 27.5t28 10.5h444 q17 0 28 -10.5t11 -27.5v-699q-9 -5 -25.5 -12.5t-69.5 -26.5t-108.5 -34t-137 -27t-160.5 -12q-253 0 -377.5 136t-124.5 396z" />
<glyph unicode="H" horiz-adv-x="1249" d="M123 39v1376q0 17 11 28t28 11h198q17 0 28 -11t11 -28v-545h451v545q0 17 11 28t28 11h198q17 0 28 -11t11 -28v-1376q0 -17 -11 -28t-28 -11h-198q-17 0 -28 11t-11 28v575h-451v-575q0 -17 -11 -28t-28 -11h-198q-17 0 -28 11t-11 28z" />
<glyph unicode="I" horiz-adv-x="911" d="M61 39v106q0 17 11 28t28 11h217v1086h-217q-17 0 -28 11t-11 28v106q0 17 11 28t28 11h711q17 0 28 -11t11 -28v-106q0 -17 -11 -28t-28 -11h-217v-1086h217q17 0 28 -11t11 -28v-106q0 -17 -11 -28t-28 -11h-711q-17 0 -28 11t-11 28z" />
<glyph unicode="J" horiz-adv-x="768" d="M82 39v168q0 17 11 28t28 11h43q109 0 157 53t48 172v944q0 17 11 28t28 11h198q17 0 28 -11t11 -28v-964q0 -226 -105.5 -338.5t-324.5 -112.5h-94q-17 0 -28 11t-11 28z" />
<glyph unicode="K" horiz-adv-x="1126" d="M123 39v1376q0 17 11 28t28 11h198q17 0 28 -11t11 -28v-1376q0 -17 -11 -28t-28 -11h-198q-17 0 -28 11t-11 28zM401 758l375 657q23 39 51 39h228q18 0 27.5 -12t0.5 -27l-374 -657l397 -719q3 -7 3 -13q0 -8 -5 -14q-9 -12 -27 -12h-229q-32 0 -51 39z" />
<glyph unicode="L" horiz-adv-x="1034" d="M123 39v1376q0 17 11 28t28 11h198q17 0 28 -11t11 -28v-1159h514q17 0 28 -11t11 -28v-178q0 -17 -11 -28t-28 -11h-751q-17 0 -28 11t-11 28z" />
<glyph unicode="M" horiz-adv-x="1566" d="M123 39v1376q0 17 11 28t28 11h225q33 0 49 -39l348 -856l346 856q16 39 50 39h225q17 0 28 -11t11 -28v-1376q0 -17 -11 -28t-28 -11h-199q-17 0 -28 11t-11 28v840l-231 -594q-16 -39 -47 -39h-211q-31 0 -47 39l-232 594v-840q0 -17 -11 -28t-28 -11h-198 q-17 0 -28 11t-11 28z" />
<glyph unicode="N" horiz-adv-x="1249" d="M123 39v1376q0 17 11 28t28 11h207q15 0 25 -6.5t15 -13t11 -19.5l430 -829v829q0 17 11 28t28 11h198q17 0 28 -11t11 -28v-1376q0 -17 -11 -28t-28 -11h-206q-33 0 -52 39l-430 829v-829q0 -17 -11 -28t-28 -11h-198q-17 0 -28 11t-11 28z" />
<glyph unicode="O" horiz-adv-x="1249" d="M123 512v430q0 257 128.5 395t373.5 138q244 0 372.5 -138t128.5 -395v-430q0 -257 -128 -394.5t-373 -137.5t-373.5 138t-128.5 394zM399 532q0 -139 51.5 -217.5t174.5 -78.5q63 0 108 22t70 63t36 92.5t11 118.5v390q0 67 -11 118.5t-36 93t-70 63.5t-108 22 q-123 0 -174.5 -79t-51.5 -218v-390z" />
<glyph unicode="P" horiz-adv-x="1187" d="M123 39v1376q0 17 11 28t28 11h442q114 0 200 -23.5t150.5 -74t97.5 -136.5t33 -206q0 -234 -124 -337.5t-357 -103.5h-205v-534q0 -17 -11 -28t-28 -11h-198q-17 0 -28 11t-11 28zM399 819h185q115 0 170 45t55 150t-54.5 149.5t-170.5 44.5h-185v-389z" />
<glyph unicode="Q" horiz-adv-x="1249" d="M123 512v430q0 257 128.5 395t373.5 138q244 0 372.5 -138t128.5 -395v-430q0 -219 -93.5 -352t-274.5 -168v-29q0 -62 26 -89.5t78 -27.5q3 0 123 13q39 3 39 -29v-184q0 -35 -39 -41q-112 -15 -201 -15q-148 0 -225.5 88t-77.5 263v53q-176 37 -267 169.5t-91 348.5z M399 532q0 -139 51.5 -217.5t174.5 -78.5q63 0 108 22t70 63t36 92.5t11 118.5v390q0 67 -11 118.5t-36 93t-70 63.5t-108 22q-123 0 -174.5 -79t-51.5 -218v-390z" />
<glyph unicode="R" horiz-adv-x="1187" d="M123 39v1376q0 17 11 28t28 11h452q471 0 471 -440q0 -345 -292 -420l329 -553q5 -7 5 -15q0 -6 -3 -12q-7 -14 -24 -14h-234q-23 0 -49 39l-317 534h-101v-534q0 -17 -11 -28t-28 -11h-198q-17 0 -28 11t-11 28zM399 819h179q116 0 173.5 43.5t57.5 151.5t-54.5 151 t-170.5 43h-185v-389z" />
<glyph unicode="S" horiz-adv-x="1095" d="M102 63v187q0 17 11 25.5t30 5.5q232 -45 349 -45q116 0 165.5 38.5t49.5 128.5v41q0 62 -40.5 95.5t-119.5 60.5l-174 57q-260 84 -260 361v51q0 106 36.5 185.5t101.5 127t147.5 70.5t181.5 23q70 0 156 -9.5t137 -18.5l51 -9q18 -2 28.5 -12t10.5 -27v-180 q0 -36 -39 -33q-207 33 -340 33q-103 0 -149 -37t-46 -113v-31q0 -48 31 -78.5t90 -50.5l174 -57q52 -17 91.5 -35.5t80.5 -49.5t67.5 -70.5t43 -98.5t16.5 -133v-62q0 -232 -115 -327.5t-360 -95.5q-72 0 -164 11t-148 23l-55 11q-39 3 -39 38z" />
<glyph unicode="T" horiz-adv-x="1126" d="M61 1237v178q0 17 11 28t28 11h926q17 0 28 -11t11 -28v-178q0 -17 -11 -28t-28 -11h-324v-1159q0 -17 -10.5 -28t-27.5 -11h-199q-17 0 -28 11t-11 28v1159h-326q-17 0 -28 11t-11 28z" />
<glyph unicode="U" horiz-adv-x="1249" d="M123 532v883q0 17 11 28t28 11h198q17 0 28 -11t11 -28v-883q0 -139 51.5 -217.5t174.5 -78.5q63 0 108 22t70 63t36 92.5t11 118.5v883q0 17 11 28t28 11h198q17 0 28 -11t11 -28v-883q0 -286 -127.5 -419t-373.5 -133t-374 133t-128 419z" />
<glyph unicode="V" horiz-adv-x="1187" d="M33 1411q-2 7 -2 14q1 9 5 17q8 12 25 12h228q29 0 39 -39l266 -1022l266 1022q10 39 39 39h227q18 0 26 -12q5 -8 5 -18q0 -6 -2 -13l-377 -1372q-9 -39 -47 -39h-274q-38 0 -47 39z" />
<glyph unicode="W" horiz-adv-x="1914" d="M49 1411q-1 7 -1 13q0 30 30 30h229q32 0 39 -39l201 -1022l252 1022q10 39 45 39h227q35 0 45 -39l252 -1022l201 1022q7 39 39 39h229q30 0 30 -30q0 -6 -1 -13l-291 -1372q-3 -17 -15.5 -28t-31.5 -11h-273q-37 0 -47 39l-250 915l-251 -915q-10 -39 -48 -39h-272 q-19 0 -31.5 11t-15.5 28z" />
<glyph unicode="X" horiz-adv-x="1208" d="M22 14q-3 7 -3 13q0 8 4 16l387 700l-367 668q-8 15 -0.5 29t25.5 14h249q33 0 52 -39l235 -438l236 438q6 13 11 19.5t15 13t25 6.5h250q18 0 25 -14t-1 -29l-366 -668l387 -700q4 -8 4 -15t-4 -14q-8 -14 -25 -14h-250q-15 0 -25 6.5t-15 13t-11 19.5l-256 471 l-256 -471q-6 -13 -11 -19.5t-15 -13t-25 -6.5h-250q-18 0 -25 14z" />
<glyph unicode="Y" horiz-adv-x="1177" d="M39 1411q-2 7 -2 13q0 9 5 16q8 14 26 14h235q11 0 19 -6.5t11.5 -13t8.5 -19.5l248 -627l246 627q5 14 8.5 20t11 12.5t18.5 6.5h236q18 0 26 -14q5 -7 5 -16q0 -6 -2 -13l-412 -950v-422q0 -17 -11 -28t-28 -11h-199q-17 0 -27.5 11t-10.5 28v422z" />
<glyph unicode="Z" horiz-adv-x="993" d="M82 39v217l498 942h-459q-17 0 -28 11t-11 28v178q0 17 11 28t28 11h751q17 0 28 -11t11 -28v-217l-497 -942h458q17 0 28 -11t11 -28v-178q0 -17 -11 -28t-28 -11h-751q-17 0 -28 11t-11 28z" />
<glyph unicode="[" horiz-adv-x="665" d="M123 -227v1908q0 17 11 28t28 11h444q17 0 28 -11t11 -28v-147q0 -17 -11 -28t-28 -11h-207v-1536h207q17 0 28 -11t11 -28v-147q0 -17 -11 -28t-28 -11h-444q-17 0 -28 11t-11 28z" />
<glyph unicode="\" horiz-adv-x="870" d="M94 1411q-5 17 4.5 30t26.5 13h211q33 0 43 -37l397 -1374q5 -17 -4.5 -30t-26.5 -13h-210q-33 0 -43 37z" />
<glyph unicode="]" horiz-adv-x="665" d="M20 -80q0 17 11 28t28 11h207v1536h-207q-17 0 -28 11t-11 28v147q0 17 11 28t28 11h445q17 0 28 -11t11 -28v-1908q0 -17 -11 -28t-28 -11h-445q-17 0 -28 11t-11 28v147z" />
<glyph unicode="^" horiz-adv-x="1228" d="M127 860l342 557q8 13 12.5 18.5t14 12t20.5 6.5h197q11 0 20.5 -6.5t14 -12t12.5 -18.5l342 -557q9 -13 -0.5 -27t-26.5 -14h-201q-23 0 -49 39l-211 336l-211 -336q-26 -39 -49 -39h-200q-17 0 -26.5 14t-0.5 27z" />
<glyph unicode="_" horiz-adv-x="1044" d="M0 -182q0 17 11 28t28 11h967q17 0 27.5 -11t10.5 -28v-168q0 -17 -10.5 -28t-27.5 -11h-967q-17 0 -28 11t-11 28v168z" />
<glyph unicode="`" horiz-adv-x="649" d="M100.5 1181q-6.5 14 1.5 29l117 226q8 16 23.5 27.5t31.5 11.5h252q18 0 25 -14.5t-4 -28.5l-164 -226q-30 -39 -55 -39h-203q-18 0 -24.5 14z" />
<glyph unicode="a" horiz-adv-x="1044" d="M92 297q0 155 96.5 236t272.5 81q105 0 184 -12v53q0 70 -35.5 101.5t-113.5 31.5q-49 0 -120 -8.5t-117 -17.5l-46 -8q-39 -3 -39 30v174q0 34 39 41q150 45 328 45q111 0 186 -24.5t117.5 -75.5t60 -120t17.5 -169v-616q0 -17 -11 -28t-28 -11h-178q-17 0 -28 11 t-11 28v14q-121 -73 -248 -73q-156 0 -241 77.5t-85 239.5zM369 307q0 -102 116 -102q69 0 160 43v168h-139q-137 0 -137 -109z" />
<glyph unicode="b" d="M123 39v1376q0 17 11 28t28 11h198q17 0 28 -11t11 -28v-430q106 59 215 59q169 0 253.5 -97.5t84.5 -270.5v-287q0 -181 -101.5 -285t-299.5 -104h-389q-17 0 -28 11t-11 28zM399 236h131q146 0 146 163v246q0 154 -135 154q-56 0 -142 -35v-528z" />
<glyph unicode="c" horiz-adv-x="819" d="M123 389v246q0 204 108 306.5t308 102.5q40 0 85 -4.5t70 -9.5l25 -4q39 -3 39 -41v-166q0 -17 -10.5 -26t-28.5 -7q-90 13 -162 13q-88 0 -123 -44.5t-35 -129.5v-226q0 -88 36 -131t124 -43q36 0 76 3.5t62 6.5l22 3q18 2 28.5 -7t10.5 -26v-166q0 -38 -39 -41 q-98 -18 -180 -18q-200 0 -308 102.5t-108 306.5z" />
<glyph unicode="d" d="M123 348v328q0 173 84.5 270.5t253.5 97.5q109 0 215 -49v420q0 17 11 28t28 11h198q17 0 28 -11t11 -28v-1376q0 -17 -11 -28t-28 -11h-178q-17 0 -28 11t-11 28v12q-124 -71 -235 -71q-169 0 -253.5 97.5t-84.5 270.5zM399 379q0 -154 136 -154q55 0 141 35v512 q-83 27 -141 27q-136 0 -136 -154v-266z" />
<glyph unicode="e" horiz-adv-x="1054" d="M113 475v86q0 222 110 352.5t316 130.5q104 0 183.5 -33.5t126.5 -94t70 -137t23 -169.5v-172q0 -17 -11 -28t-28 -11h-510q11 -86 59 -127t142 -41q49 0 116 6.5t110 13.5l42 7q39 3 39 -33v-176q0 -38 -39 -41q-149 -28 -284 -28q-465 0 -465 495zM389 598h297v29 q0 93 -32 139.5t-111 46.5q-84 0 -118 -52.5t-36 -162.5z" />
<glyph unicode="f" horiz-adv-x="624" d="M20 827v158q0 17 11 28t28 11h105v117q0 75 17.5 134t46.5 96t69.5 61t83 33.5t90.5 9.5q39 0 73 -3.5t48 -6.5l14 -3q39 -7 39 -39v-174q0 -38 -39 -35q-42 5 -71 5q-95 0 -95 -91v-104h125q17 0 28 -11t11 -28v-158q0 -17 -11 -28t-28 -11h-125v-749q0 -17 -11 -28 t-28 -11h-198q-17 0 -28 11t-11 28v749h-105q-17 0 -28 11t-11 28z" />
<glyph unicode="g" d="M123 389v266q0 181 101.5 285t299.5 104q79 0 176.5 -12.5t155.5 -25.5l57 -13q18 -2 28.5 -12t10.5 -27v-923q0 -246 -92.5 -343.5t-310.5 -97.5q-73 0 -159.5 10t-136.5 20l-50 9q-39 3 -39 41v180q0 34 39 31q178 -35 299 -35q99 0 136.5 43.5t37.5 141.5v49 q-108 -60 -215 -60q-168 0 -253 98t-85 271zM399 420q0 -154 136 -154q55 0 141 35v483q-99 15 -131 15q-146 0 -146 -154v-225z" />
<glyph unicode="h" d="M123 39v1376q0 17 11 28t28 11h198q17 0 28 -11t11 -28v-444q114 73 246 73q165 0 236 -90.5t71 -257.5v-657q0 -17 -11 -28t-28 -11h-198q-17 0 -28 11t-11 28v616q0 66 -27 99.5t-92 33.5q-70 0 -158 -43v-706q0 -17 -11 -28t-28 -11h-198q-17 0 -28 11t-11 28z" />
<glyph unicode="i" horiz-adv-x="522" d="M123 39v946q0 17 11 28t28 11h198q17 0 28 -11t11 -28v-946q0 -17 -11 -28t-28 -11h-198q-17 0 -28 11t-11 28zM123 1217v198q0 17 11 28t28 11h198q17 0 28 -11t11 -28v-198q0 -17 -11 -28t-28 -11h-198q-17 0 -28 11t-11 28z" />
<glyph unicode="j" horiz-adv-x="522" d="M-41 -197q0 16 11.5 25.5t27.5 9.5q37 -2 55 -2q70 0 70 78v1071q0 17 11 28t28 11h198q17 0 28 -11t11 -28v-1118q0 -147 -60.5 -212t-182.5 -65q-36 0 -75.5 2t-60.5 4l-22 3q-39 7 -39 39v165zM123 1217v198q0 17 11 28t28 11h198q17 0 28 -11t11 -28v-198 q0 -17 -11 -28t-28 -11h-198q-17 0 -28 11t-11 28z" />
<glyph unicode="k" horiz-adv-x="952" d="M123 39v1376q0 17 11 28t28 11h198q17 0 28 -11t11 -28v-1376q0 -17 -11 -28t-28 -11h-198q-17 0 -28 11t-11 28zM401 573l213 412q20 39 52 39h221q17 0 24.5 -12t-0.5 -27l-211 -405l236 -541q3 -6 3 -13q0 -8 -4 -14q-7 -12 -24 -12h-221q-16 0 -30.5 11.5t-20.5 27.5 z" />
<glyph unicode="l" horiz-adv-x="522" d="M123 39v1376q0 17 11 28t28 11h198q17 0 28 -11t11 -28v-1376q0 -17 -11 -28t-28 -11h-198q-17 0 -28 11t-11 28z" />
<glyph unicode="m" horiz-adv-x="1628" d="M123 39v946q0 17 11 28t28 11h178q17 0 28 -11t11 -28v-29q123 88 266 88q180 0 254 -114q136 114 299 114q165 0 236 -90.5t71 -257.5v-657q0 -17 -11 -28t-28 -11h-198q-17 0 -28 11t-11 28v616q0 66 -27 99.5t-92 33.5q-70 0 -160 -51q0 -6 1 -20t1 -21v-657 q0 -17 -11 -28t-28 -11h-198q-17 0 -28 11t-11 28v616q0 66 -27 99.5t-92 33.5q-70 0 -158 -43v-706q0 -17 -11 -28t-28 -11h-198q-17 0 -28 11t-11 28z" />
<glyph unicode="n" d="M123 39v946q0 17 11 28t28 11h178q17 0 28 -11t11 -28v-29q123 88 266 88q165 0 236 -90.5t71 -257.5v-657q0 -17 -11 -28t-28 -11h-198q-17 0 -28 11t-11 28v616q0 66 -27 99.5t-92 33.5q-70 0 -158 -43v-706q0 -17 -11 -28t-28 -11h-198q-17 0 -28 11t-11 28z" />
<glyph unicode="o" horiz-adv-x="1077" d="M123 389v246q0 204 108 306.5t308 102.5t307.5 -102.5t107.5 -306.5v-246q0 -204 -107.5 -306.5t-307.5 -102.5t-308 102.5t-108 306.5zM399 385q0 -164 140 -164q139 0 139 164v256q0 164 -139 164q-140 0 -140 -164v-256z" />
<glyph unicode="p" d="M123 -350v1335q0 17 11 28t28 11h178q17 0 28 -11t11 -28v-12q124 71 235 71q169 0 253.5 -97.5t84.5 -270.5v-287q0 -181 -101.5 -285t-299.5 -104q-49 0 -152 14v-364q0 -17 -11 -28t-28 -11h-198q-17 0 -28 11t-11 28zM399 236h131q146 0 146 163v246q0 154 -135 154 q-56 0 -142 -35v-528z" />
<glyph unicode="q" d="M123 348v307q0 181 101.5 285t299.5 104q79 0 176.5 -12.5t155.5 -25.5l57 -13q18 -2 28.5 -12t10.5 -27v-1304q0 -17 -11 -28t-28 -11h-198q-17 0 -28 11t-11 28v389q-106 -59 -215 -59q-169 0 -253.5 97.5t-84.5 270.5zM399 379q0 -154 136 -154q55 0 141 35v524 q-99 15 -131 15q-146 0 -146 -154v-266z" />
<glyph unicode="r" horiz-adv-x="675" d="M123 39v946q0 17 11 28t28 11h178q17 0 28 -11t11 -28v-78q54 137 186 137l45 -4q35 -3 35 -39v-237q0 -18 -8 -28t-25 -9q-12 2 -20 2q-114 0 -193 -121v-569q0 -17 -11 -28t-28 -11h-198q-17 0 -28 11t-11 28z" />
<glyph unicode="s" horiz-adv-x="993" d="M92 68v170q0 38 39 32q209 -45 330 -45q85 0 119 18t34 58q0 36 -33 51.5t-100 24.5l-71 10q-45 6 -81.5 15.5t-81 32t-74.5 54.5t-50.5 87t-20.5 126q0 90 30.5 157t86 107t127.5 59t162 19q74 0 149.5 -8.5t114.5 -17.5l39 -8q21 -5 30 -13.5t9 -25.5v-168 q0 -36 -39 -33q-168 29 -289 29q-80 0 -111.5 -16.5t-31.5 -55.5q0 -18 8.5 -29.5t28.5 -18.5t36 -10t46 -7l86 -13q47 -7 85.5 -17.5t82 -34t72.5 -56t48 -86.5t19 -123q0 -192 -100 -272t-306 -80q-77 0 -165.5 12.5t-138.5 24.5l-50 12q-21 5 -30 13.5t-9 25.5z" />
<glyph unicode="t" horiz-adv-x="727" d="M20 827v158q0 17 11 28t28 11h105v227q0 17 11 28t28 11h198q17 0 28 -11t11 -28v-227h228q17 0 28 -11t11 -28v-158q0 -17 -11 -28t-28 -11h-228v-436q0 -61 26 -88.5t79 -27.5q21 0 51.5 3t51.5 6l20 3q39 3 39 -29v-184q0 -35 -39 -41q-105 -14 -201 -14 q-150 0 -226.5 82t-76.5 255v471h-105q-17 0 -28 11t-11 28z" />
<glyph unicode="u" d="M123 328v657q0 17 11 28t28 11h198q17 0 28 -11t11 -28v-616q0 -66 27 -99.5t92 -33.5q70 0 158 43v706q0 17 11 28t28 11h198q17 0 28 -11t11 -28v-946q0 -17 -11 -28t-28 -11h-178q-17 0 -28 11t-11 28v29q-123 -88 -266 -88q-165 0 -236 90.5t-71 257.5z" />
<glyph unicode="v" horiz-adv-x="1024" d="M33 983q-1 5 -1 10q0 11 6 19q10 12 28 12h217q35 0 45 -37l184 -655l184 655q10 37 45 37h217q18 0 28 -12q7 -8 6 -19q0 -5 -1 -10l-282 -944q-5 -17 -17.5 -28t-29.5 -11h-300q-17 0 -29.5 11t-17.5 28z" />
<glyph unicode="w" horiz-adv-x="1587" d="M49 983q-1 4 -1 8q0 12 8 21q10 12 26 12h219q17 0 29.5 -11t15.5 -28l125 -653l164 653q10 39 47 39h223q37 0 47 -39l164 -653l127 655q3 17 15.5 27t29.5 10h217q17 0 27 -12q7 -9 7 -21q0 -4 -1 -8l-209 -944q-7 -39 -47 -39h-295q-35 0 -45 39l-147 530l-150 -530 q-10 -39 -47 -39h-295q-38 0 -45 39z" />
<glyph unicode="x" horiz-adv-x="983" d="M22 13q-4 6 -3 13q0 7 4 15l270 487l-250 455q-8 15 0 28t25 13h254q28 0 47 -37l123 -237l122 237q18 37 48 37h253q17 0 25 -13t0 -28l-250 -455l271 -487q4 -8 4 -14.5t-4 -13.5q-8 -13 -25 -13h-256q-28 0 -47 37l-141 270l-142 -270q-18 -37 -47 -37h-256 q-17 0 -25 13z" />
<glyph unicode="y" horiz-adv-x="1024" d="M33 985q-1 5 -1 10q0 10 6 18q10 11 28 11h217q36 0 45 -35l174 -567l192 565q11 37 45 37h217q17 0 28 -13q7 -9 7 -19q0 -4 -2 -9l-454 -1335q-11 -37 -43 -37h-222q-17 0 -26 13t-4 28l112 332z" />
<glyph unicode="z" horiz-adv-x="952" d="M82 39v207l387 532h-348q-17 0 -28 11t-11 28v168q0 17 11 28t28 11h710q17 0 28 -11t11 -28v-207l-387 -532h348q17 0 28 -11t11 -28v-168q0 -17 -11 -28t-28 -11h-710q-17 0 -28 11t-11 28z" />
<glyph unicode="{" horiz-adv-x="727" d="M20 653v148q0 39 35 39h13q65 0 90.5 41t25.5 123v327q0 206 98.5 297.5t321.5 91.5h64q17 0 28 -11t11 -28v-147q0 -17 -11 -28t-28 -11h-64q-82 0 -112.5 -40.5t-30.5 -123.5v-368q0 -97 -26 -155.5t-93 -80.5q66 -21 92.5 -79.5t26.5 -155.5v-369q0 -83 30.5 -123.5 t112.5 -40.5h64q17 0 28 -11t11 -28v-147q0 -17 -11 -28t-28 -11h-64q-221 0 -320.5 92t-99.5 297v328q0 83 -24.5 123t-91.5 40h-13q-35 0 -35 39z" />
<glyph unicode="|" horiz-adv-x="522" d="M123 -166v1786q0 17 11 28t28 11h198q17 0 28 -11t11 -28v-1786q0 -17 -11 -28t-28 -11h-198q-17 0 -28 11t-11 28z" />
<glyph unicode="}" horiz-adv-x="727" d="M20 -80q0 17 11 28t28 11h64q82 0 112.5 40.5t30.5 123.5v369q0 97 26 155t93 80q-66 20 -92.5 79.5t-26.5 156.5v368q0 83 -30.5 123.5t-112.5 40.5h-64q-17 0 -28 11t-11 28v147q0 17 11 28t28 11h64q221 0 320.5 -92t99.5 -297v-327q0 -82 25.5 -123t90.5 -41h13 q35 0 35 -39v-148q0 -39 -35 -39h-13q-67 0 -91.5 -40t-24.5 -123v-328q0 -206 -98.5 -297.5t-321.5 -91.5h-64q-17 0 -28 11t-11 28v147z" />
<glyph unicode="~" d="M102 612v168q0 32 37 45q87 45 189 45q74 0 216 -30.5t208 -30.5q27 0 72.5 9.5t77.5 19.5l32 10q16 3 27.5 -4t11.5 -23v-168q0 -32 -37 -45q-86 -45 -188 -45q-73 0 -214 31t-210 31q-27 0 -73 -9.5t-78 -19.5l-32 -10q-16 -3 -27.5 3.5t-11.5 22.5z" />
<glyph unicode="&#xa1;" horiz-adv-x="522" d="M113 807v219q0 17 11 28t28 11h219q17 0 28 -11t11 -28v-219q0 -17 -11 -28t-28 -11h-219q-17 0 -28 11t-11 28zM123 -350v895q0 17 11 28t28 11h198q17 0 28 -11t11 -28v-895q0 -17 -11 -28t-28 -11h-198q-17 0 -28 11t-11 28z" />
<glyph unicode="&#xa2;" horiz-adv-x="1024" d="M174 399v228q0 324 266 397v207q0 17 11 28t28 11h199q17 0 28 -11t11 -28v-193l94 -12q39 -6 39 -41v-166q0 -17 -10.5 -26t-28.5 -7q-102 13 -182 13q-92 0 -135 -46t-43 -137v-206q0 -95 44 -140t136 -45q36 0 81 3.5t72 6.5l27 3q18 2 28.5 -7t10.5 -26v-166 q0 -35 -39 -41q-24 -4 -94 -12v-193q0 -17 -11 -28t-28 -11h-199q-17 0 -28 11t-11 28v209q-127 36 -196.5 135t-69.5 262z" />
<glyph unicode="&#xa3;" horiz-adv-x="1024" d="M14 664l15 157q2 18 12 28.5t27 10.5h116v135q0 228 110.5 354t346.5 126q71 0 142 -10.5t106 -20.5l35 -10q17 -3 28 -15.5t11 -29.5v-179q0 -31 -39 -28q-154 37 -279 37q-61 0 -100 -18.5t-56 -54t-22.5 -69t-5.5 -82.5v-135h403q17 0 26 -10.5t7 -28.5l-14 -157 q-2 -18 -12 -28.5t-27 -10.5h-383v-369h463q17 0 28 -11t11 -28v-178q0 -17 -11 -28t-28 -11h-701q-17 0 -28 11t-11 28v586h-137q-17 0 -26 10.5t-7 28.5z" />
<glyph unicode="&#xa4;" horiz-adv-x="1024" d="M27 390q0 16 12 28l102 102q-45 85 -45 197q0 116 45 196l-102 103q-12 12 -12 27.5t12 27.5l119 117q12 12 27.5 12t27.5 -12l113 -113q87 33 186 33q97 0 184 -33l113 113q12 12 27.5 12t27.5 -12l119 -117q12 -12 12 -27.5t-12 -27.5l-102 -103q47 -83 47 -196 q0 -114 -47 -197l102 -102q12 -12 12 -28t-12 -28l-119 -116q-12 -12 -27.5 -12t-27.5 12l-113 112q-85 -32 -184 -32q-101 0 -186 32l-113 -112q-12 -12 -27.5 -12t-27.5 12l-119 116q-12 12 -12 28zM373 717q0 -156 139 -156t139 156q0 155 -139 155t-139 -155z" />
<glyph unicode="&#xa5;" horiz-adv-x="1024" d="M37 1411q-5 18 1.5 30.5t24.5 12.5h238q29 0 39 -39l174 -627l170 627q10 39 39 39h235q18 0 26 -12.5t3 -30.5l-162 -520h117q17 0 28 -11t11 -28v-158q0 -17 -11 -28t-28 -11h-190l-39 -123h229q17 0 28 -10.5t11 -27.5v-158q0 -17 -11 -28t-28 -11h-291v-258 q0 -17 -11 -28t-28 -11h-198q-17 0 -28 11t-11 28v258h-293q-17 0 -28 11t-11 28v158q0 17 11 27.5t28 10.5h231l-39 123h-192q-17 0 -28 11t-11 28v158q0 17 11 28t28 11h119z" />
<glyph unicode="&#xa6;" horiz-adv-x="522" d="M123 -166v762q0 17 11 28t28 11h198q17 0 28 -11t11 -28v-762q0 -17 -11 -28t-28 -11h-198q-17 0 -28 11t-11 28zM123 858v762q0 17 11 28t28 11h198q17 0 28 -11t11 -28v-762q0 -17 -11 -28t-28 -11h-198q-17 0 -28 11t-11 28z" />
<glyph unicode="&#xa7;" horiz-adv-x="1034" d="M113 33q0 18 10.5 27t28.5 6q218 -46 329 -46q84 0 119 20.5t35 61.5v29q0 12 -4 22t-15 18t-19 13t-28.5 11t-30 9t-36.5 9l-72 18q-119 31 -171 62q-136 79 -136 262v41q0 158 129 242q-129 77 -129 254v41q0 176 109.5 259t295.5 83q75 0 150.5 -8.5t113.5 -17.5 l39 -9q21 -5 30 -13.5t9 -25.5v-168q0 -36 -39 -33q-161 29 -288 29q-79 0 -111.5 -19t-32.5 -59v-29q0 -7 2 -13.5t4.5 -11.5t8 -9.5t9.5 -7.5t12.5 -6.5t14 -5.5t16.5 -5t16 -4t18 -4t18 -4l86 -21q51 -12 85.5 -23.5t80.5 -36.5t73.5 -56.5t47.5 -85.5t20 -123v-64 q0 -166 -108 -231q108 -77 108 -242v-41q0 -192 -100 -272t-305 -80q-79 0 -167.5 12.5t-137.5 24.5l-49 12q-21 5 -30 13.5t-9 25.5v170zM399 614q0 -83 119 -110l53 -12q64 24 64 98v61q0 48 -34 71.5t-99 37.5l-29 6q-74 -33 -74 -104v-48z" />
<glyph unicode="&#xa8;" horiz-adv-x="931" d="M102 1217v198q0 17 11 28t28 11h199q17 0 28 -11t11 -28v-198q0 -17 -11 -28t-28 -11h-199q-17 0 -28 11t-11 28zM553 1217v198q0 17 11 28t28 11h199q17 0 27.5 -11t10.5 -28v-198q0 -17 -10.5 -28t-27.5 -11h-199q-17 0 -28 11t-11 28z" />
<glyph unicode="&#xa9;" horiz-adv-x="1638" d="M123 645v164q0 167 52 295.5t146 209t219.5 121t278.5 40.5t278.5 -40.5t220 -121t146.5 -209t52 -295.5v-164q0 -167 -52 -295.5t-146.5 -208.5t-220 -120.5t-278.5 -40.5t-278.5 40.5t-219.5 120.5t-146 208.5t-52 295.5zM420 655q0 -409 399 -409q400 0 400 409v144 q0 409 -400 409q-399 0 -399 -409v-144zM512 707v41q0 174 91.5 271t266.5 97q35 0 74 -4t60 -8l22 -4q21 -5 30 -13.5t9 -25.5v-119q0 -36 -39 -33q-65 13 -145 13q-154 0 -154 -174v-41q0 -86 40.5 -130.5t113.5 -44.5q36 0 72 3t55 7l18 3q39 3 39 -33v-119 q0 -17 -9 -25.5t-30 -13.5q-80 -16 -156 -16q-174 0 -266 97.5t-92 271.5z" />
<glyph unicode="&#xaa;" horiz-adv-x="1064" d="M113 727q0 155 96.5 236t271.5 81q105 0 185 -12v53q0 70 -36 102t-114 32q-49 0 -120 -8.5t-117 -17.5l-46 -9q-38 -3 -38 30v175q0 34 38 41q150 45 328 45q111 0 186 -24.5t117.5 -76t60 -120.5t17.5 -169v-616q0 -17 -11 -28t-28 -11h-178q-17 0 -28 11t-11 28v14 q-121 -73 -248 -73q-325 0 -325 317zM133 39v168q0 17 11 28t28 11h731q17 0 28 -11t11 -28v-168q0 -17 -11 -28t-28 -11h-731q-17 0 -28 11t-11 28zM389 737q0 -102 117 -102q69 0 160 43v168h-140q-137 0 -137 -109z" />
<glyph unicode="&#xab;" horiz-adv-x="1146" d="M112.5 675.5q-0.5 17.5 16.5 49.5l156 281q19 38 49 38h221q17 0 25.5 -11.5t1.5 -26.5l-183 -330l183 -330q7 -15 -1.5 -27t-25.5 -12h-221q-30 0 -49 39l-156 281q-16 31 -16.5 48.5zM552.5 675.5q-0.5 17.5 16.5 49.5l156 281q19 38 49 38h221q17 0 25.5 -11.5 t1.5 -26.5l-182 -330l182 -330q7 -15 -1.5 -27t-25.5 -12h-221q-30 0 -49 39l-156 281q-16 31 -16.5 48.5z" />
<glyph unicode="&#xac;" d="M102 633v168q0 17 11 28t28 11h793q17 0 28 -11t11 -28v-496q0 -17 -11 -28t-28 -11h-178q-17 0 -28 11t-11 28v289h-576q-17 0 -28 11t-11 28z" />
<glyph unicode="&#xad;" horiz-adv-x="716" d="M102 633v168q0 17 11 28t28 11h434q17 0 28 -11t11 -28v-168q0 -17 -11 -28t-28 -11h-434q-17 0 -28 11t-11 28z" />
<glyph unicode="&#xae;" horiz-adv-x="1638" d="M123 645v164q0 167 52 295.5t146 209t219.5 121t278.5 40.5t278.5 -40.5t220 -121t146.5 -209t52 -295.5v-164q0 -167 -52 -295.5t-146.5 -208.5t-220 -120.5t-278.5 -40.5t-278.5 40.5t-219.5 120.5t-146 208.5t-52 295.5zM420 655q0 -409 399 -409q400 0 400 409v144 q0 409 -400 409q-399 0 -399 -409v-144zM573 397v660q0 17 11 28t28 11h222q63 0 110 -9t91 -33t67.5 -73t23.5 -121q0 -100 -44.5 -152t-123.5 -71l144 -238q9 -13 1.5 -27t-24.5 -14h-129q-26 0 -51 37l-137 230h-14v-228q0 -17 -11 -28t-28 -11h-97q-17 0 -28 11t-11 28z M748 778h86q58 0 88 16.5t30 65.5q0 51 -29.5 66.5t-88.5 15.5h-86v-164z" />
<glyph unicode="&#xaf;" horiz-adv-x="727" d="M102 1257v158q0 17 11 28t28 11h445q17 0 28 -11t11 -28v-158q0 -17 -11 -27.5t-28 -10.5h-445q-17 0 -28 10.5t-11 27.5z" />
<glyph unicode="&#xb0;" horiz-adv-x="1077" d="M123 1014v59q0 184 112.5 293t303.5 109t303 -109t112 -293v-59q0 -184 -112 -293t-303 -109t-303.5 109t-112.5 293zM399 1004q0 -73 34 -114.5t106 -41.5q139 0 139 156v79q0 156 -139 156q-72 0 -106 -41.5t-34 -114.5v-79z" />
<glyph unicode="&#xb1;" d="M102 39v168q0 17 11 28t28 11h793q17 0 28 -11t11 -28v-168q0 -17 -11 -28t-28 -11h-793q-17 0 -28 11t-11 28zM102 653v168q0 17 11 28t28 11h269v268q0 17 11 28t28 11h178q17 0 28 -11t11 -28v-268h268q17 0 28 -11t11 -28v-168q0 -17 -11 -28t-28 -11h-268v-268 q0 -17 -11 -28t-28 -11h-178q-17 0 -28 11t-11 28v268h-269q-17 0 -28 11t-11 28z" />
<glyph unicode="&#xb2;" horiz-adv-x="696" d="M49 621v176q0 72 25.5 126.5t63.5 84.5t83 53.5t83 37t63.5 32t25.5 40.5v35q0 47 -76 47q-35 0 -92 -5t-97 -10l-40 -5q-17 -3 -28 5.5t-11 25.5v141q0 18 10.5 30t28.5 13q138 27 242 27q155 0 237 -60t82 -196v-48q0 -54 -19 -97.5t-49.5 -71t-67 -49t-73 -37.5 t-67 -30.5t-49.5 -33t-19 -41.5v-8h305q17 0 28 -11t11 -28v-143q0 -17 -11 -28t-28 -11h-522q-17 0 -28 11t-11 28z" />
<glyph unicode="&#xb3;" horiz-adv-x="696" d="M33 627v145q0 17 11 25.5t28 5.5q149 -21 227 -21q90 0 90 66v18q0 54 -94 54h-150q-17 0 -28 10.5t-11 27.5v144q0 17 11 28t28 11h134q49 0 67.5 12t18.5 37v20q0 25 -19.5 34t-58.5 9q-35 0 -88.5 -5t-90.5 -10l-36 -5q-18 -2 -28.5 7t-10.5 26v143q0 36 39 39 q122 27 235 27q70 0 123.5 -10.5t98 -35.5t68.5 -72.5t24 -115.5v-47q0 -95 -80 -150q104 -55 104 -170v-67q0 -58 -18 -102t-48 -71t-73.5 -43.5t-90 -23t-102.5 -6.5q-44 0 -104.5 6.5t-98.5 13.5l-38 7q-39 3 -39 39z" />
<glyph unicode="&#xb4;" horiz-adv-x="649" d="M98 1460.5q7 14.5 25 14.5h252q35 0 55 -39l117 -226q8 -15 1.5 -29t-24.5 -14h-202q-26 0 -56 39l-164 226q-11 14 -4 28.5z" />
<glyph unicode="&#xb5;" d="M123 -350v1335q0 17 11 28t28 11h198q17 0 28 -11t11 -28v-616q0 -66 27 -99.5t92 -33.5q70 0 158 43v706q0 17 11 28t28 11h198q17 0 28 -11t11 -28v-946q0 -17 -11 -28t-28 -11h-178q-17 0 -28 11t-11 28v29q-123 -88 -266 -88h-31v-330q0 -17 -11 -28t-28 -11h-198 q-17 0 -28 11t-11 28z" />
<glyph unicode="&#xb6;" horiz-adv-x="1402" d="M102 1014q0 233 128.5 336.5t363.5 103.5h268q17 0 28 -11t11 -28v-1376q0 -17 -11 -28t-28 -11h-198q-17 0 -28 11t-11 28v534h-31q-114 0 -202 23.5t-154 74.5t-101 137t-35 206zM379 1014q0 -103 52.5 -149t152.5 -46h41v389h-41q-100 0 -152.5 -45.5t-52.5 -148.5z M1004 39v1376q0 17 10.5 28t27.5 11h199q17 0 28 -11t11 -28v-1376q0 -17 -11 -28t-28 -11h-199q-17 0 -27.5 11t-10.5 28z" />
<glyph unicode="&#xb7;" horiz-adv-x="481" d="M102 633v198q0 17 11 28t28 11h199q17 0 28 -11t11 -28v-198q0 -17 -11 -28t-28 -11h-199q-17 0 -28 11t-11 28z" />
<glyph unicode="&#xb8;" horiz-adv-x="604" d="M102 -301q0 35 37 35h41q39 0 57.5 12t18.5 41q0 28 -17 38.5t-53 10.5h-32q-17 0 -24.5 10.5t-4.5 28.5l45 207h184l-30 -139h8q170 0 170 -179q0 -41 -11 -72t-30 -50t-46.5 -31t-57 -16.5t-66.5 -4.5q-30 0 -67.5 4t-59.5 8l-23 3q-18 2 -28.5 12t-10.5 27v55z" />
<glyph unicode="&#xb9;" horiz-adv-x="696" d="M61 1204v142q0 37 37 47l201 61h176q17 0 28 -11t11 -28v-794q0 -17 -11 -28t-28 -11h-178q-17 0 -28 11t-11 28v585l-158 -32q-18 -3 -28.5 5t-10.5 25z" />
<glyph unicode="&#xba;" horiz-adv-x="1077" d="M123 819v246q0 204 108 307t308 103t307.5 -103t107.5 -307v-246q0 -204 -107.5 -306.5t-307.5 -102.5t-308 102.5t-108 306.5zM143 39v168q0 17 11 28t28 11h713q17 0 28 -11t11 -28v-168q0 -17 -11 -28t-28 -11h-713q-17 0 -28 11t-11 28zM399 815q0 -164 140 -164 q139 0 139 164v256q0 164 -139 164q-140 0 -140 -164v-256z" />
<glyph unicode="&#xbb;" horiz-adv-x="1146" d="M125 346l182 330l-182 330q-7 15 1.5 26.5t25.5 11.5h221q30 0 49 -38l156 -281q17 -32 16.5 -49.5t-16.5 -48.5l-156 -281q-20 -39 -49 -39h-221q-17 0 -25.5 12t-1.5 27zM565 346l183 330l-183 330q-7 15 1.5 26.5t25.5 11.5h221q30 0 49 -38l156 -281 q17 -32 16.5 -49.5t-16.5 -48.5l-156 -281q-20 -39 -49 -39h-221q-17 0 -25.5 12t-1.5 27z" />
<glyph unicode="&#xbc;" horiz-adv-x="1832" d="M61 1204v142q0 37 37 47l201 61h176q17 0 28 -11t11 -28v-794q0 -17 -11 -28t-28 -11h-178q-17 0 -28 11t-11 28v585l-158 -32q-18 -3 -28.5 5t-10.5 25zM428 39l670 1376q20 39 51 39h229q17 0 25.5 -12t1.5 -27l-670 -1376q-19 -39 -51 -39h-229q-17 0 -25.5 12 t-1.5 27zM1157 156v153q53 91 75.5 184.5t22.5 215.5v125q0 17 11 27.5t28 10.5h179q17 0 27.5 -10.5t10.5 -27.5v-125q0 -82 -3 -131.5t-20.5 -116.5t-51.5 -123h69q41 80 41 248v14q0 17 11 28t28 11h146q17 0 27.5 -11t10.5 -28v-262h5q17 0 27.5 -11t10.5 -28v-143 q0 -17 -10.5 -28t-27.5 -11h-5v-78q0 -17 -10.5 -28t-27.5 -11h-179q-17 0 -28 11t-11 28v78h-317q-17 0 -28 11t-11 28z" />
<glyph unicode="&#xbd;" horiz-adv-x="1832" d="M61 1204v142q0 37 37 47l201 61h176q17 0 28 -11t11 -28v-794q0 -17 -11 -28t-28 -11h-178q-17 0 -28 11t-11 28v585l-158 -32q-18 -3 -28.5 5t-10.5 25zM428 39l670 1376q20 39 51 39h229q17 0 25.5 -12t1.5 -27l-670 -1376q-19 -39 -51 -39h-229q-17 0 -25.5 12 t-1.5 27zM1186 39v176q0 62 19 111.5t49.5 79.5t67 53.5t73 38.5t67 28t49.5 29t19 35v35q0 47 -76 47q-35 0 -92 -5t-97 -11l-40 -5q-17 -3 -28 5.5t-11 25.5v141q0 18 10.5 30t28.5 13q137 27 241 27q155 0 237.5 -60t82.5 -196v-47q0 -54 -19 -97.5t-49.5 -71t-67 -49.5 t-73 -37.5t-67 -30.5t-49.5 -33.5t-19 -41.5v-8h305q17 0 28 -11t11 -28v-143q0 -17 -11 -28t-28 -11h-522q-17 0 -28 11t-11 28z" />
<glyph unicode="&#xbe;" horiz-adv-x="1832" d="M33 627v145q0 17 11 25.5t28 5.5q149 -21 227 -21q90 0 90 66v18q0 54 -94 54h-150q-17 0 -28 10.5t-11 27.5v144q0 17 11 28t28 11h134q49 0 67.5 12t18.5 37v20q0 25 -19.5 34t-58.5 9q-35 0 -88.5 -5t-90.5 -10l-36 -5q-18 -2 -28.5 7t-10.5 26v143q0 36 39 39 q122 27 235 27q70 0 123.5 -10.5t98 -35.5t68.5 -72.5t24 -115.5v-47q0 -95 -80 -150q104 -55 104 -170v-67q0 -58 -18 -102t-48 -71t-73.5 -43.5t-90 -23t-102.5 -6.5q-44 0 -104.5 6.5t-98.5 13.5l-38 7q-39 3 -39 39zM428 39l670 1376q20 39 51 39h229q17 0 25.5 -12 t1.5 -27l-670 -1376q-19 -39 -51 -39h-229q-17 0 -25.5 12t-1.5 27zM1157 156v153q53 91 75.5 184.5t22.5 215.5v125q0 17 11 27.5t28 10.5h179q17 0 27.5 -10.5t10.5 -27.5v-125q0 -82 -3 -131.5t-20.5 -116.5t-51.5 -123h69q41 80 41 248v14q0 17 11 28t28 11h146 q17 0 27.5 -11t10.5 -28v-262h5q17 0 27.5 -11t10.5 -28v-143q0 -17 -10.5 -28t-27.5 -11h-5v-78q0 -17 -10.5 -28t-27.5 -11h-179q-17 0 -28 11t-11 28v78h-317q-17 0 -28 11t-11 28z" />
<glyph unicode="&#xbf;" horiz-adv-x="931" d="M102 -47q0 186 131 291l50 39q31 25 44 37t31 35.5t24.5 52.5t6.5 69v68q0 17 11 28t28 11h199q17 0 28 -11t11 -28v-68q0 -97 -17.5 -163t-46.5 -104.5t-80 -76.5l-53 -39q-2 -1 -14.5 -10.5t-15 -11.5t-13.5 -10.5t-13.5 -12t-10.5 -12t-10 -14.5t-6 -14.5t-5.5 -18 t-1.5 -19.5v-20q0 -105 151 -105q47 0 117.5 8t116.5 16l47 9q39 3 39 -31v-180q0 -17 -10.5 -27t-28.5 -12q-161 -39 -313 -39q-89 0 -159.5 18t-124.5 56.5t-83 103.5t-29 154v31zM379 807v219q0 17 11 28t28 11h219q17 0 28 -11t11 -28v-219q0 -17 -11 -28t-28 -11h-219 q-17 0 -28 11t-11 28z" />
<glyph unicode="&#xc0;" horiz-adv-x="1239" d="M33 41l405 1374q5 17 17.5 28t29.5 11h269q17 0 29.5 -11t17.5 -28l405 -1374q5 -17 -3 -29t-25 -12h-224q-33 0 -43 39l-57 207h-469l-57 -207q-10 -39 -43 -39h-224q-17 0 -25 12t-3 29zM292.5 1849q6.5 15 24.5 15h252q17 0 32.5 -11.5t23.5 -27.5l116 -226 q8 -15 2 -29t-24 -14h-203q-25 0 -55 39l-164 226q-11 13 -4.5 28zM457 502h325l-161 590z" />
<glyph unicode="&#xc1;" horiz-adv-x="1239" d="M33 41l405 1374q5 17 17.5 28t29.5 11h269q17 0 29.5 -11t17.5 -28l405 -1374q5 -17 -3 -29t-25 -12h-224q-33 0 -43 39l-57 207h-469l-57 -207q-10 -39 -43 -39h-224q-17 0 -25 12t-3 29zM457 502h325l-161 590zM512.5 1570q-6.5 14 1.5 29l117 226q8 16 23.5 27.5 t31.5 11.5h252q18 0 24.5 -15t-4.5 -28l-163 -226q-30 -39 -56 -39h-202q-18 0 -24.5 14z" />
<glyph unicode="&#xc2;" horiz-adv-x="1239" d="M33 41l405 1374q5 17 17.5 28t29.5 11h269q17 0 29.5 -11t17.5 -28l405 -1374q5 -17 -3 -29t-25 -12h-224q-33 0 -43 39l-57 207h-469l-57 -207q-10 -39 -43 -39h-224q-17 0 -25 12t-3 29zM303 1573v176q0 5 1 9t3.5 7.5t4.5 5.5t6.5 5t7 4t8.5 4l8 4l227 115 q30 15 50 15.5t55 -15.5l225 -115l8 -4t8.5 -4t7 -4t6.5 -5t4.5 -5.5t3.5 -7.5t1 -9v-176q0 -17 -12 -25t-27 -2l-278 119l-279 -119q-15 -6 -27 2t-12 25zM457 502h325l-161 590z" />
<glyph unicode="&#xc3;" horiz-adv-x="1239" d="M33 41l405 1374q5 17 17.5 28t29.5 11h269q17 0 29.5 -11t17.5 -28l405 -1374q5 -17 -3 -29t-25 -12h-224q-33 0 -43 39l-57 207h-469l-57 -207q-10 -39 -43 -39h-224q-17 0 -25 12t-3 29zM303 1604v147q0 31 39 66q6 5 17 12.5t45.5 20t70.5 12.5q54 0 111 -18.5 t103.5 -37t74.5 -18.5q25 0 58 12t53 24l20 13q16 6 29.5 -1t13.5 -24v-145q0 -38 -39 -65q-6 -5 -17 -12.5t-45.5 -20.5t-70.5 -13q-55 0 -153.5 37t-135.5 37q-25 0 -58.5 -12t-54.5 -24l-20 -13q-15 -7 -28 -0.5t-13 23.5zM457 502h325l-161 590z" />
<glyph unicode="&#xc4;" horiz-adv-x="1239" d="M33 41l405 1374q5 17 17.5 28t29.5 11h269q17 0 29.5 -11t17.5 -28l405 -1374q5 -17 -3 -29t-25 -12h-224q-33 0 -43 39l-57 207h-469l-57 -207q-10 -39 -43 -39h-224q-17 0 -25 12t-3 29zM256 1575v199q0 17 11 27.5t28 10.5h199q17 0 27.5 -10.5t10.5 -27.5v-199 q0 -17 -10.5 -28t-27.5 -11h-199q-17 0 -28 11t-11 28zM457 502h325l-161 590zM707 1575v199q0 17 10.5 27.5t27.5 10.5h199q17 0 28 -10.5t11 -27.5v-199q0 -17 -11 -28t-28 -11h-199q-17 0 -27.5 11t-10.5 28z" />
<glyph unicode="&#xc5;" horiz-adv-x="1239" d="M33 41l387 1313q-55 58 -55 151q0 105 68 165.5t188 60.5q118 0 187 -61t69 -165q0 -92 -58 -153l387 -1311q5 -17 -3 -29t-25 -12h-224q-33 0 -43 39l-57 207h-469l-57 -207q-10 -39 -43 -39h-224q-17 0 -25 12t-3 29zM457 502h325l-161 590zM539 1505q0 -92 82 -92 q81 0 81 92t-81 92q-82 0 -82 -92z" />
<glyph unicode="&#xc6;" horiz-adv-x="1617" d="M37 41l532 1374q16 39 41 39h887q17 0 28 -11t11 -28v-178q0 -17 -11 -28t-28 -11h-412v-328h371q17 0 28 -11t11 -28v-178q0 -17 -11 -28t-28 -11h-371v-358h412q17 0 28 -11t11 -28v-178q0 -17 -11 -28t-28 -11h-649q-17 0 -28 11t-11 28v237h-375l-90 -237 q-5 -13 -8.5 -19.5t-11.5 -13t-19 -6.5h-242q-17 0 -24.5 13t-1.5 28zM530 532h279v666h-25z" />
<glyph unicode="&#xc7;" horiz-adv-x="972" d="M123 512v430q0 257 128.5 395t373.5 138q48 0 105 -5.5t90 -11.5l32 -6q39 -3 39 -41v-182q0 -36 -41 -33q-133 16 -225 16q-123 0 -174.5 -76t-51.5 -214v-390q0 -140 52.5 -215t183.5 -75q41 0 95 4.5t88 9.5l34 4q39 3 39 -33v-184q0 -38 -39 -41q-118 -22 -227 -22 h-21l-8 -37h8q170 0 170 -179q0 -41 -11 -72t-30 -50t-46.5 -31t-57 -16.5t-66.5 -4.5q-30 0 -67.5 4t-59.5 8l-22 3q-18 2 -28.5 12t-10.5 27v55q0 35 37 35h41q39 0 57 11.5t18 41.5q0 28 -16.5 38.5t-52.5 10.5h-33q-17 0 -24.5 10.5t-4.5 28.5l29 133q-149 49 -226 178 t-77 326z" />
<glyph unicode="&#xc8;" horiz-adv-x="1034" d="M123 39v1376q0 17 11 28t28 11h751q17 0 28 -11t11 -28v-178q0 -17 -11 -28t-28 -11h-514v-328h473q17 0 28 -11t11 -28v-178q0 -17 -11 -28t-28 -11h-473v-358h514q17 0 28 -11t11 -28v-178q0 -17 -11 -28t-28 -11h-751q-17 0 -28 11t-11 28zM288.5 1849q6.5 15 24.5 15 h252q17 0 32.5 -11.5t23.5 -27.5l116 -226q8 -15 2 -29t-24 -14h-203q-25 0 -55 39l-164 226q-11 13 -4.5 28z" />
<glyph unicode="&#xc9;" horiz-adv-x="1034" d="M123 39v1376q0 17 11 28t28 11h751q17 0 28 -11t11 -28v-178q0 -17 -11 -28t-28 -11h-514v-328h473q17 0 28 -11t11 -28v-178q0 -17 -11 -28t-28 -11h-473v-358h514q17 0 28 -11t11 -28v-178q0 -17 -11 -28t-28 -11h-751q-17 0 -28 11t-11 28zM410 1570q-6 14 2 29 l116 226q8 16 23.5 27.5t32.5 11.5h252q18 0 24.5 -15t-4.5 -28l-164 -226q-30 -39 -55 -39h-203q-18 0 -24 14z" />
<glyph unicode="&#xca;" horiz-adv-x="1034" d="M123 39v1376q0 17 11 28t28 11h751q17 0 28 -11t11 -28v-178q0 -17 -11 -28t-28 -11h-514v-328h473q17 0 28 -11t11 -28v-178q0 -17 -11 -28t-28 -11h-473v-358h514q17 0 28 -11t11 -28v-178q0 -17 -11 -28t-28 -11h-751q-17 0 -28 11t-11 28zM221 1573v176q0 5 1 9 t3.5 7.5t4.5 5.5t6.5 5t7 4t8.5 4l8 4l227 115q30 15 50 15.5t55 -15.5l225 -115l8 -4t8.5 -4t7 -4t6.5 -5t4.5 -5.5t3.5 -7.5t1 -9v-176q0 -17 -12 -25t-27 -2l-278 119l-279 -119q-15 -6 -27 2t-12 25z" />
<glyph unicode="&#xcb;" horiz-adv-x="1034" d="M123 39v1376q0 17 11 28t28 11h751q17 0 28 -11t11 -28v-178q0 -17 -11 -28t-28 -11h-514v-328h473q17 0 28 -11t11 -28v-178q0 -17 -11 -28t-28 -11h-473v-358h514q17 0 28 -11t11 -28v-178q0 -17 -11 -28t-28 -11h-751q-17 0 -28 11t-11 28zM174 1575v199q0 17 11 27.5 t28 10.5h199q17 0 28 -10.5t11 -27.5v-199q0 -17 -11 -28t-28 -11h-199q-17 0 -28 11t-11 28zM625 1575v199q0 17 11 27.5t28 10.5h198q17 0 28 -10.5t11 -27.5v-199q0 -17 -11 -28t-28 -11h-198q-17 0 -28 11t-11 28z" />
<glyph unicode="&#xcc;" horiz-adv-x="911" d="M61 39v106q0 17 11 28t28 11h217v1086h-217q-17 0 -28 11t-11 28v106q0 17 11 28t28 11h711q17 0 28 -11t11 -28v-106q0 -17 -11 -28t-28 -11h-217v-1086h217q17 0 28 -11t11 -28v-106q0 -17 -11 -28t-28 -11h-711q-17 0 -28 11t-11 28zM133 1849q7 15 25 15h252 q16 0 31.5 -11.5t23.5 -27.5l117 -226q8 -15 1.5 -29t-24.5 -14h-203q-25 0 -55 39l-164 226q-11 13 -4 28z" />
<glyph unicode="&#xcd;" horiz-adv-x="911" d="M61 39v106q0 17 11 28t28 11h217v1086h-217q-17 0 -28 11t-11 28v106q0 17 11 28t28 11h711q17 0 28 -11t11 -28v-106q0 -17 -11 -28t-28 -11h-217v-1086h217q17 0 28 -11t11 -28v-106q0 -17 -11 -28t-28 -11h-711q-17 0 -28 11t-11 28zM342.5 1570q-6.5 14 1.5 29 l117 226q8 16 23.5 27.5t31.5 11.5h252q18 0 24.5 -15t-4.5 -28l-163 -226q-30 -39 -56 -39h-202q-18 0 -24.5 14z" />
<glyph unicode="&#xce;" horiz-adv-x="911" d="M61 39v106q0 17 11 28t28 11h217v1086h-217q-17 0 -28 11t-11 28v106q0 17 11 28t28 11h711q17 0 28 -11t11 -28v-106q0 -17 -11 -28t-28 -11h-217v-1086h217q17 0 28 -11t11 -28v-106q0 -17 -11 -28t-28 -11h-711q-17 0 -28 11t-11 28zM139 1573v176q0 5 1 9t3.5 7.5 t4.5 5.5t6.5 5t7 4t8.5 4l8 4l228 115q30 15 49.5 15.5t54.5 -15.5l225 -115l8 -4t8.5 -4t7 -4t6.5 -5t4.5 -5.5t3.5 -7.5t1 -9v-176q0 -17 -12 -25t-27 -2l-278 119l-279 -119q-15 -6 -27 2t-12 25z" />
<glyph unicode="&#xcf;" horiz-adv-x="911" d="M61 39v106q0 17 11 28t28 11h217v1086h-217q-17 0 -28 11t-11 28v106q0 17 11 28t28 11h711q17 0 28 -11t11 -28v-106q0 -17 -11 -28t-28 -11h-217v-1086h217q17 0 28 -11t11 -28v-106q0 -17 -11 -28t-28 -11h-711q-17 0 -28 11t-11 28zM92 1575v199q0 17 11 27.5 t28 10.5h199q17 0 28 -10.5t11 -27.5v-199q0 -17 -11 -28t-28 -11h-199q-17 0 -28 11t-11 28zM543 1575v199q0 17 11 27.5t28 10.5h198q17 0 28 -10.5t11 -27.5v-199q0 -17 -11 -28t-28 -11h-198q-17 0 -28 11t-11 28z" />
<glyph unicode="&#xd0;" horiz-adv-x="1249" d="M123 39v1376q0 17 11 28t28 11h463q245 0 373 -137.5t128 -394.5v-390q0 -257 -128 -394.5t-373 -137.5h-463q-17 0 -28 11t-11 28zM399 256h226q63 0 108 22t70 63.5t36 93t11 118.5v348q0 67 -11 118.5t-36 93t-70 63.5t-108 22h-226v-328h289q17 0 28 -11t11 -28v-178 q0 -17 -11 -28t-28 -11h-289v-358z" />
<glyph unicode="&#xd1;" horiz-adv-x="1249" d="M123 39v1376q0 17 11 28t28 11h207q15 0 25 -6.5t15 -13t11 -19.5l430 -829v829q0 17 11 28t28 11h198q17 0 28 -11t11 -28v-1376q0 -17 -11 -28t-28 -11h-206q-33 0 -52 39l-430 829v-829q0 -17 -11 -28t-28 -11h-198q-17 0 -28 11t-11 28zM307 1604v147q0 31 39 66 q6 5 17 12.5t45.5 20t70.5 12.5q54 0 111 -18.5t103.5 -37t74.5 -18.5q25 0 58 12t53 24l20 13q16 6 29.5 -1t13.5 -24v-145q0 -38 -39 -65q-6 -5 -17 -12.5t-45.5 -20.5t-70.5 -13q-55 0 -153.5 37t-135.5 37q-25 0 -58.5 -12t-54.5 -24l-20 -13q-15 -7 -28 -0.5t-13 23.5z " />
<glyph unicode="&#xd2;" horiz-adv-x="1249" d="M123 512v430q0 257 128.5 395t373.5 138q244 0 372.5 -138t128.5 -395v-430q0 -257 -128 -394.5t-373 -137.5t-373.5 138t-128.5 394zM301 1849q7 15 25 15h252q16 0 31.5 -11.5t23.5 -27.5l117 -226q8 -15 1.5 -29t-24.5 -14h-203q-25 0 -55 39l-164 226q-11 13 -4 28z M399 532q0 -139 51.5 -217.5t174.5 -78.5q63 0 108 22t70 63t36 92.5t11 118.5v390q0 67 -11 118.5t-36 93t-70 63.5t-108 22q-123 0 -174.5 -79t-51.5 -218v-390z" />
<glyph unicode="&#xd3;" horiz-adv-x="1249" d="M123 512v430q0 257 128.5 395t373.5 138q244 0 372.5 -138t128.5 -395v-430q0 -257 -128 -394.5t-373 -137.5t-373.5 138t-128.5 394zM399 532q0 -139 51.5 -217.5t174.5 -78.5q63 0 108 22t70 63t36 92.5t11 118.5v390q0 67 -11 118.5t-36 93t-70 63.5t-108 22 q-123 0 -174.5 -79t-51.5 -218v-390zM492 1570q-6 14 2 29l116 226q8 16 23.5 27.5t32.5 11.5h252q18 0 24.5 -15t-4.5 -28l-164 -226q-30 -39 -55 -39h-203q-18 0 -24 14z" />
<glyph unicode="&#xd4;" horiz-adv-x="1249" d="M123 512v430q0 257 128.5 395t373.5 138q244 0 372.5 -138t128.5 -395v-430q0 -257 -128 -394.5t-373 -137.5t-373.5 138t-128.5 394zM307 1573v176q0 5 1 9t3.5 7.5t4.5 5.5t6.5 5t7 4t8.5 4l8 4l227 115q30 15 50 15.5t55 -15.5l225 -115l8 -4t8.5 -4t7 -4t6.5 -5 t4.5 -5.5t3.5 -7.5t1 -9v-176q0 -17 -12 -25t-27 -2l-278 119l-279 -119q-15 -6 -27 2t-12 25zM399 532q0 -139 51.5 -217.5t174.5 -78.5q63 0 108 22t70 63t36 92.5t11 118.5v390q0 67 -11 118.5t-36 93t-70 63.5t-108 22q-123 0 -174.5 -79t-51.5 -218v-390z" />
<glyph unicode="&#xd5;" horiz-adv-x="1249" d="M123 512v430q0 257 128.5 395t373.5 138q244 0 372.5 -138t128.5 -395v-430q0 -257 -128 -394.5t-373 -137.5t-373.5 138t-128.5 394zM307 1604v147q0 31 39 66q6 5 17 12.5t45.5 20t70.5 12.5q54 0 111 -18.5t103.5 -37t74.5 -18.5q25 0 58 12t53 24l20 13q16 6 29.5 -1 t13.5 -24v-145q0 -38 -39 -65q-6 -5 -17 -12.5t-45.5 -20.5t-70.5 -13q-55 0 -153.5 37t-135.5 37q-25 0 -58.5 -12t-54.5 -24l-20 -13q-15 -7 -28 -0.5t-13 23.5zM399 532q0 -139 51.5 -217.5t174.5 -78.5q63 0 108 22t70 63t36 92.5t11 118.5v390q0 67 -11 118.5t-36 93 t-70 63.5t-108 22q-123 0 -174.5 -79t-51.5 -218v-390z" />
<glyph unicode="&#xd6;" horiz-adv-x="1249" d="M123 512v430q0 257 128.5 395t373.5 138q244 0 372.5 -138t128.5 -395v-430q0 -257 -128 -394.5t-373 -137.5t-373.5 138t-128.5 394zM221 1575v199q0 17 11 27.5t28 10.5h199q17 0 28 -10.5t11 -27.5v-199q0 -17 -11 -28t-28 -11h-199q-17 0 -28 11t-11 28zM399 532 q0 -139 51.5 -217.5t174.5 -78.5q63 0 108 22t70 63t36 92.5t11 118.5v390q0 67 -11 118.5t-36 93t-70 63.5t-108 22q-123 0 -174.5 -79t-51.5 -218v-390zM754 1575v199q0 17 11 27.5t28 10.5h198q17 0 28 -10.5t11 -27.5v-199q0 -17 -11 -28t-28 -11h-198q-17 0 -28 11 t-11 28z" />
<glyph unicode="&#xd7;" horiz-adv-x="1079" d="M117 451.5q0 15.5 12 27.5l238 238l-238 237q-12 12 -12 28t12 28l119 116q12 12 27.5 12t27.5 -12l238 -235l235 235q12 12 27.5 12t27.5 -12l119 -116q12 -12 12 -28t-12 -28l-237 -237l237 -238q12 -12 12 -27.5t-12 -27.5l-119 -117q-12 -12 -27.5 -12t-27.5 12 l-237 236l-236 -236q-12 -12 -27.5 -12t-27.5 12l-119 117q-12 12 -12 27.5z" />
<glyph unicode="&#xd8;" horiz-adv-x="1249" d="M123 512v430q0 257 128.5 395t373.5 138q88 0 166 -19l57 166q15 37 45 37h102q17 0 25 -11t2 -26l-82 -236q186 -133 186 -444v-430q0 -257 -128 -394.5t-373 -137.5q-92 0 -166 18l-58 -166q-15 -37 -45 -37h-102q-17 0 -25 11t-2 26l82 236q-186 133 -186 444z M399 532q0 -91 19 -149l287 825q-42 11 -80 11q-123 0 -174.5 -79t-51.5 -218v-390zM545 246q38 -10 80 -10q63 0 108 22t70 63t36 92.5t11 118.5v390q0 91 -19 149z" />
<glyph unicode="&#xd9;" horiz-adv-x="1249" d="M123 532v883q0 17 11 28t28 11h198q17 0 28 -11t11 -28v-883q0 -139 51.5 -217.5t174.5 -78.5q63 0 108 22t70 63t36 92.5t11 118.5v883q0 17 11 28t28 11h198q17 0 28 -11t11 -28v-883q0 -286 -127.5 -419t-373.5 -133t-374 133t-128 419zM327.5 1849q6.5 15 24.5 15 h252q16 0 31.5 -11.5t23.5 -27.5l117 -226q8 -15 2 -29t-24 -14h-203q-25 0 -55 39l-164 226q-11 13 -4.5 28z" />
<glyph unicode="&#xda;" horiz-adv-x="1249" d="M123 532v883q0 17 11 28t28 11h198q17 0 28 -11t11 -28v-883q0 -139 51.5 -217.5t174.5 -78.5q63 0 108 22t70 63t36 92.5t11 118.5v883q0 17 11 28t28 11h198q17 0 28 -11t11 -28v-883q0 -286 -127.5 -419t-373.5 -133t-374 133t-128 419zM518.5 1570q-6.5 14 1.5 29 l117 226q8 16 23.5 27.5t31.5 11.5h252q18 0 25 -15t-4 -28l-164 -226q-30 -39 -56 -39h-202q-18 0 -24.5 14z" />
<glyph unicode="&#xdb;" horiz-adv-x="1249" d="M123 532v883q0 17 11 28t28 11h198q17 0 28 -11t11 -28v-883q0 -139 51.5 -217.5t174.5 -78.5q63 0 108 22t70 63t36 92.5t11 118.5v883q0 17 11 28t28 11h198q17 0 28 -11t11 -28v-883q0 -286 -127.5 -419t-373.5 -133t-374 133t-128 419zM307 1573v176q0 5 1 9t3.5 7.5 t4.5 5.5t6.5 5t7 4t8.5 4l8 4l227 115q30 15 50 15.5t55 -15.5l225 -115l8 -4t8.5 -4t7 -4t6.5 -5t4.5 -5.5t3.5 -7.5t1 -9v-176q0 -17 -12 -25t-27 -2l-278 119l-279 -119q-15 -6 -27 2t-12 25z" />
<glyph unicode="&#xdc;" horiz-adv-x="1249" d="M123 532v883q0 17 11 28t28 11h198q17 0 28 -11t11 -28v-883q0 -139 51.5 -217.5t174.5 -78.5q63 0 108 22t70 63t36 92.5t11 118.5v883q0 17 11 28t28 11h198q17 0 28 -11t11 -28v-883q0 -286 -127.5 -419t-373.5 -133t-374 133t-128 419zM262 1575v199q0 17 11 27.5 t28 10.5h199q17 0 28 -10.5t11 -27.5v-199q0 -17 -11 -28t-28 -11h-199q-17 0 -28 11t-11 28zM713 1575v199q0 17 11 27.5t28 10.5h198q17 0 28 -10.5t11 -27.5v-199q0 -17 -11 -28t-28 -11h-198q-17 0 -28 11t-11 28z" />
<glyph unicode="&#xdd;" horiz-adv-x="1177" d="M39 1411q-6 16 2.5 29.5t26.5 13.5h235q11 0 19 -6.5t11.5 -13t8.5 -19.5l248 -627l246 627q5 14 8.5 20t11 12.5t18.5 6.5h236q18 0 26.5 -13.5t2.5 -29.5l-412 -950v-422q0 -17 -11 -28t-28 -11h-199q-17 0 -27.5 11t-10.5 28v422zM483.5 1570q-6.5 14 1.5 29l117 226 q20 39 55 39h252q18 0 25 -15t-4 -28l-164 -226q-30 -39 -55 -39h-203q-18 0 -24.5 14z" />
<glyph unicode="&#xde;" horiz-adv-x="1167" d="M123 39v1376q0 17 11 28t28 11h198q17 0 28 -11t11 -28v-227h205q114 0 200 -23.5t150.5 -74t97.5 -136.5t33 -206q0 -234 -124 -337.5t-357 -103.5h-205v-268q0 -17 -11 -28t-28 -11h-198q-17 0 -28 11t-11 28zM399 553h185q115 0 170 45t55 150t-54.5 149.5 t-170.5 44.5h-185v-389z" />
<glyph unicode="&#xdf;" horiz-adv-x="1187" d="M123 39v1022q0 91 23.5 165.5t71.5 130.5t127 87t183 31q179 0 286.5 -93.5t107.5 -263.5q0 -68 -19 -129t-42.5 -96t-42.5 -73t-19 -66q0 -25 16 -47t41 -40t55.5 -37.5t61 -46.5t55.5 -60.5t41 -85t16 -115.5q0 -180 -91.5 -261t-250.5 -81q-56 0 -111 3.5t-82 6.5 l-28 4q-22 5 -31.5 13.5t-9.5 25.5v174q0 17 11 26.5t30 6.5q99 -15 185 -15q48 0 75 18.5t27 67.5q0 31 -21.5 57t-53 43.5t-69 44.5t-69 57t-53 83.5t-21.5 122.5q0 57 19 114.5t42.5 95.5t42.5 84t19 83q0 61 -30.5 92t-86.5 31q-63 0 -96 -42.5t-33 -121.5v-1016 q0 -17 -11 -28t-28 -11h-198q-17 0 -28 11t-11 28z" />
<glyph unicode="&#xe0;" horiz-adv-x="1044" d="M92 297q0 155 96.5 236t272.5 81q105 0 184 -12v53q0 70 -35.5 101.5t-113.5 31.5q-49 0 -120 -8.5t-117 -17.5l-46 -8q-39 -3 -39 30v174q0 34 39 41q150 45 328 45q111 0 186 -24.5t117.5 -75.5t60 -120t17.5 -169v-616q0 -17 -11 -28t-28 -11h-178q-17 0 -28 11 t-11 28v14q-121 -73 -248 -73q-156 0 -241 77.5t-85 239.5zM227 1460.5q7 14.5 25 14.5h252q16 0 31.5 -11.5t23.5 -27.5l117 -226q8 -15 1.5 -29t-24.5 -14h-202q-26 0 -56 39l-164 226q-11 14 -4 28.5zM369 307q0 -102 116 -102q69 0 160 43v168h-139q-137 0 -137 -109z " />
<glyph unicode="&#xe1;" horiz-adv-x="1044" d="M92 297q0 155 96.5 236t272.5 81q105 0 184 -12v53q0 70 -35.5 101.5t-113.5 31.5q-49 0 -120 -8.5t-117 -17.5l-46 -8q-39 -3 -39 30v174q0 34 39 41q150 45 328 45q111 0 186 -24.5t117.5 -75.5t60 -120t17.5 -169v-616q0 -17 -11 -28t-28 -11h-178q-17 0 -28 11 t-11 28v14q-121 -73 -248 -73q-156 0 -241 77.5t-85 239.5zM369 307q0 -102 116 -102q69 0 160 43v168h-139q-137 0 -137 -109zM416 1181q-6 14 2 29l117 226q8 16 23.5 27.5t31.5 11.5h252q18 0 24.5 -14.5t-4.5 -28.5l-164 -226q-30 -39 -55 -39h-203q-18 0 -24 14z" />
<glyph unicode="&#xe2;" horiz-adv-x="1044" d="M92 297q0 155 96.5 236t272.5 81q105 0 184 -12v53q0 70 -35.5 101.5t-113.5 31.5q-49 0 -120 -8.5t-117 -17.5l-46 -8q-39 -3 -39 30v174q0 34 39 41q150 45 328 45q111 0 186 -24.5t117.5 -75.5t60 -120t17.5 -169v-616q0 -17 -11 -28t-28 -11h-178q-17 0 -28 11 t-11 28v14q-121 -73 -248 -73q-156 0 -241 77.5t-85 239.5zM205 1145v176q0 5 1 9t3.5 7.5t4.5 5.5t6.5 5t7 4t8.5 4l8 4l227 115q30 15 49.5 15.5t54.5 -15.5l226 -115l8 -4t8.5 -4t7 -4t6.5 -5t4.5 -5.5t3.5 -7.5t1 -9v-176q0 -17 -12 -25t-27 -2l-279 119l-278 -119 q-15 -6 -27 2t-12 25zM369 307q0 -102 116 -102q69 0 160 43v168h-139q-137 0 -137 -109z" />
<glyph unicode="&#xe3;" horiz-adv-x="1044" d="M92 297q0 155 96.5 236t272.5 81q105 0 184 -12v53q0 70 -35.5 101.5t-113.5 31.5q-49 0 -120 -8.5t-117 -17.5l-46 -8q-39 -3 -39 30v174q0 34 39 41q150 45 328 45q111 0 186 -24.5t117.5 -75.5t60 -120t17.5 -169v-616q0 -17 -11 -28t-28 -11h-178q-17 0 -28 11 t-11 28v14q-121 -73 -248 -73q-156 0 -241 77.5t-85 239.5zM205 1217v147q0 31 39 66q6 5 17 12.5t45.5 20t70.5 12.5q54 0 111 -18.5t103.5 -37t74.5 -18.5q25 0 58 12.5t53 24.5l20 12q16 6 29.5 -1t13.5 -24v-145q0 -39 -39 -66q-6 -5 -17 -12.5t-45.5 -20t-70.5 -12.5 q-55 0 -153.5 37t-135.5 37q-25 0 -58.5 -12.5t-54.5 -24.5l-20 -12q-15 -7 -28 -0.5t-13 23.5zM369 307q0 -102 116 -102q69 0 160 43v168h-139q-137 0 -137 -109z" />
<glyph unicode="&#xe4;" horiz-adv-x="1044" d="M92 297q0 155 96.5 236t272.5 81q105 0 184 -12v53q0 70 -35.5 101.5t-113.5 31.5q-49 0 -120 -8.5t-117 -17.5l-46 -8q-39 -3 -39 30v174q0 34 39 41q150 45 328 45q111 0 186 -24.5t117.5 -75.5t60 -120t17.5 -169v-616q0 -17 -11 -28t-28 -11h-178q-17 0 -28 11 t-11 28v14q-121 -73 -248 -73q-156 0 -241 77.5t-85 239.5zM174 1217v198q0 17 11 28t28 11h199q17 0 28 -11t11 -28v-198q0 -17 -11 -28t-28 -11h-199q-17 0 -28 11t-11 28zM369 307q0 -102 116 -102q69 0 160 43v168h-139q-137 0 -137 -109zM625 1217v198q0 17 11 28 t28 11h198q17 0 28 -11t11 -28v-198q0 -17 -11 -28t-28 -11h-198q-17 0 -28 11t-11 28z" />
<glyph unicode="&#xe5;" horiz-adv-x="1044" d="M92 297q0 155 96.5 236t272.5 81q105 0 184 -12v53q0 70 -35.5 101.5t-113.5 31.5q-49 0 -120 -8.5t-117 -17.5l-46 -8q-39 -3 -39 30v174q0 34 39 41q150 45 328 45q111 0 186 -24.5t117.5 -75.5t60 -120t17.5 -169v-616q0 -17 -11 -28t-28 -11h-178q-17 0 -28 11 t-11 28v14q-121 -73 -248 -73q-156 0 -241 77.5t-85 239.5zM285 1331q0 105 68 165t188 60q119 0 187.5 -60.5t68.5 -164.5q0 -105 -68 -165t-188 -60q-119 0 -187.5 60.5t-68.5 164.5zM369 307q0 -102 116 -102q69 0 160 43v168h-139q-137 0 -137 -109zM459 1331 q0 -92 82 -92t82 92t-82 92t-82 -92z" />
<glyph unicode="&#xe6;" horiz-adv-x="1587" d="M92 297q0 155 96.5 236t272.5 81q105 0 184 -12v53q0 70 -35.5 101.5t-113.5 31.5q-49 0 -120 -8.5t-117 -17.5l-46 -8q-39 -3 -39 30v174q0 34 39 41q150 45 328 45q188 0 276 -73q103 73 254 73q105 0 184 -33.5t126 -94t70.5 -137t23.5 -169.5v-172q0 -17 -11 -28 t-28 -11h-510q11 -86 58.5 -127t141.5 -41q49 0 116.5 6.5t109.5 13.5l43 7q39 3 39 -33v-176q0 -38 -39 -41q-150 -28 -285 -28q-240 0 -358 135q-164 -135 -334 -135q-156 0 -241 77.5t-85 239.5zM369 307q0 -102 116 -102q84 0 189 57q-21 67 -27 154h-141 q-137 0 -137 -109zM922 598h297v29q0 93 -32 139.5t-112 46.5q-84 0 -117.5 -52.5t-35.5 -162.5z" />
<glyph unicode="&#xe7;" horiz-adv-x="819" d="M123 389v246q0 204 108 306.5t308 102.5q40 0 85 -4.5t70 -9.5l25 -4q39 -3 39 -41v-166q0 -17 -10.5 -26t-28.5 -7q-90 13 -162 13q-88 0 -123 -44.5t-35 -129.5v-226q0 -88 36 -131t124 -43q36 0 76 3.5t62 6.5l22 3q18 2 28.5 -7t10.5 -26v-166q0 -38 -39 -41 q-98 -18 -180 -18h-23l-8 -37h8q170 0 170 -179q0 -41 -11 -72t-30 -50t-46.5 -31t-57 -16.5t-66.5 -4.5q-30 0 -67.5 4t-59.5 8l-22 3q-18 2 -28.5 12t-10.5 27v55q0 35 37 35h41q39 0 57 11.5t18 41.5q0 28 -16.5 38.5t-52.5 10.5h-33q-17 0 -24.5 10.5t-4.5 28.5l31 137 q-217 86 -217 377z" />
<glyph unicode="&#xe8;" horiz-adv-x="1054" d="M113 475v86q0 222 110 352.5t316 130.5q104 0 183.5 -33.5t126.5 -94t70 -137t23 -169.5v-172q0 -17 -11 -28t-28 -11h-510q11 -86 59 -127t142 -41q49 0 116 6.5t110 13.5l42 7q39 3 39 -33v-176q0 -38 -39 -41q-149 -28 -284 -28q-465 0 -465 495zM219 1460.5 q7 14.5 25 14.5h252q16 0 31.5 -11.5t23.5 -27.5l117 -226q8 -15 1.5 -29t-24.5 -14h-203q-25 0 -55 39l-164 226q-11 14 -4 28.5zM389 598h297v29q0 93 -32 139.5t-111 46.5q-84 0 -118 -52.5t-36 -162.5z" />
<glyph unicode="&#xe9;" horiz-adv-x="1054" d="M113 475v86q0 222 110 352.5t316 130.5q104 0 183.5 -33.5t126.5 -94t70 -137t23 -169.5v-172q0 -17 -11 -28t-28 -11h-510q11 -86 59 -127t142 -41q49 0 116 6.5t110 13.5l42 7q39 3 39 -33v-176q0 -38 -39 -41q-149 -28 -284 -28q-465 0 -465 495zM389 598h297v29 q0 93 -32 139.5t-111 46.5q-84 0 -118 -52.5t-36 -162.5zM412 1181q-6 14 2 29l116 226q8 16 23.5 27.5t32.5 11.5h252q18 0 24.5 -14.5t-4.5 -28.5l-164 -226q-30 -39 -55 -39h-203q-18 0 -24 14z" />
<glyph unicode="&#xea;" horiz-adv-x="1054" d="M113 475v86q0 222 110 352.5t316 130.5q104 0 183.5 -33.5t126.5 -94t70 -137t23 -169.5v-172q0 -17 -11 -28t-28 -11h-510q11 -86 59 -127t142 -41q49 0 116 6.5t110 13.5l42 7q39 3 39 -33v-176q0 -38 -39 -41q-149 -28 -284 -28q-465 0 -465 495zM211 1145v176 q0 5 1 9t3.5 7.5t4.5 5.5t6.5 5t7 4t8.5 4l8 4l227 115q30 15 50 15.5t55 -15.5l225 -115l8 -4t8.5 -4t7 -4t6.5 -5t4.5 -5.5t3.5 -7.5t1 -9v-176q0 -17 -12 -25t-27 -2l-279 119l-278 -119q-15 -6 -27 2t-12 25zM389 598h297v29q0 93 -32 139.5t-111 46.5q-84 0 -118 -52.5 t-36 -162.5z" />
<glyph unicode="&#xeb;" horiz-adv-x="1054" d="M113 475v86q0 222 110 352.5t316 130.5q104 0 183.5 -33.5t126.5 -94t70 -137t23 -169.5v-172q0 -17 -11 -28t-28 -11h-510q11 -86 59 -127t142 -41q49 0 116 6.5t110 13.5l42 7q39 3 39 -33v-176q0 -38 -39 -41q-149 -28 -284 -28q-465 0 -465 495zM164 1217v198 q0 17 11 28t28 11h198q17 0 28 -11t11 -28v-198q0 -17 -11 -28t-28 -11h-198q-17 0 -28 11t-11 28zM389 598h297v29q0 93 -32 139.5t-111 46.5q-84 0 -118 -52.5t-36 -162.5zM614 1217v198q0 17 11 28t28 11h199q17 0 28 -11t11 -28v-198q0 -17 -11 -28t-28 -11h-199 q-17 0 -28 11t-11 28z" />
<glyph unicode="&#xec;" horiz-adv-x="522" d="M-65.5 1460.5q6.5 14.5 24.5 14.5h252q35 0 55 -39l117 -226q8 -15 1.5 -29t-24.5 -14h-202q-26 0 -56 39l-163 226q-11 14 -4.5 28.5zM123 39v946q0 17 11 28t28 11h198q17 0 28 -11t11 -28v-946q0 -17 -11 -28t-28 -11h-198q-17 0 -28 11t-11 28z" />
<glyph unicode="&#xed;" horiz-adv-x="522" d="M123 39v946q0 17 11 28t28 11h198q17 0 28 -11t11 -28v-946q0 -17 -11 -28t-28 -11h-198q-17 0 -28 11t-11 28zM135.5 1181q-6.5 14 1.5 29l117 226q20 39 55 39h252q18 0 25 -14.5t-4 -28.5l-164 -226q-30 -39 -56 -39h-202q-18 0 -24.5 14z" />
<glyph unicode="&#xee;" horiz-adv-x="522" d="M-55 1145v176q0 5 1 9t3.5 7.5t4.5 5.5t6.5 5t7 4t8.5 4l8 4l227 115q30 15 49.5 15.5t54.5 -15.5l226 -115l8 -4t8.5 -4t7 -4t6.5 -5t4.5 -5.5t3.5 -7.5t1 -9v-176q0 -17 -12 -25t-27 -2l-279 119l-278 -119q-15 -6 -27 2t-12 25zM123 39v946q0 17 11 28t28 11h198 q17 0 28 -11t11 -28v-946q0 -17 -11 -28t-28 -11h-198q-17 0 -28 11t-11 28z" />
<glyph unicode="&#xef;" horiz-adv-x="522" d="M-102 1217v198q0 17 11 28t28 11h198q17 0 28 -11t11 -28v-198q0 -17 -11 -28t-28 -11h-198q-17 0 -28 11t-11 28zM123 39v946q0 17 11 28t28 11h198q17 0 28 -11t11 -28v-946q0 -17 -11 -28t-28 -11h-198q-17 0 -28 11t-11 28zM348 1217v198q0 17 11 28t28 11h199 q17 0 28 -11t11 -28v-198q0 -17 -11 -28t-28 -11h-199q-17 0 -28 11t-11 28z" />
<glyph unicode="&#xf0;" horiz-adv-x="1126" d="M123 410v208q0 386 360 386q138 0 244 -64v43q0 56 -8 92l-127 -47q-15 -6 -27 1t-12 24v75q0 27 39 43l51 19q-53 29 -141 29q-38 0 -102.5 -5.5t-109.5 -11.5l-46 -6q-39 -3 -39 33v180q0 36 39 39q149 27 268 27q292 0 412 -183l123 45q15 6 26.5 -1.5t11.5 -24.5v-68 q0 -34 -38 -49l-68 -25q25 -92 25 -206v-553q0 -207 -114.5 -318.5t-326.5 -111.5q-216 0 -328 113t-112 317zM399 416q0 -88 38 -134t126 -46q85 0 124.5 44t39.5 136v274q-110 58 -184 58q-69 0 -106.5 -33t-37.5 -111v-188z" />
<glyph unicode="&#xf1;" d="M123 39v946q0 17 11 28t28 11h178q17 0 28 -11t11 -28v-29q123 88 266 88q165 0 236 -90.5t71 -257.5v-657q0 -17 -11 -28t-28 -11h-198q-17 0 -28 11t-11 28v616q0 66 -27 99.5t-92 33.5q-70 0 -158 -43v-706q0 -17 -11 -28t-28 -11h-198q-17 0 -28 11t-11 28zM221 1217 v147q0 31 39 66q6 5 17 12.5t45.5 20t70.5 12.5q54 0 111 -18.5t103.5 -37t74.5 -18.5q25 0 58 12.5t53 24.5l20 12q16 6 29.5 -1t13.5 -24v-145q0 -39 -39 -66q-6 -5 -17 -12.5t-45.5 -20t-70.5 -12.5q-55 0 -153.5 37t-135.5 37q-25 0 -58.5 -12.5t-54.5 -24.5l-20 -12 q-15 -7 -28 -0.5t-13 23.5z" />
<glyph unicode="&#xf2;" horiz-adv-x="1077" d="M123 389v246q0 204 108 306.5t308 102.5t307.5 -102.5t107.5 -306.5v-246q0 -204 -107.5 -306.5t-307.5 -102.5t-308 102.5t-108 306.5zM211 1460.5q7 14.5 25 14.5h251q17 0 32.5 -11.5t23.5 -27.5l116 -226q8 -15 2 -29t-24 -14h-203q-25 0 -55 39l-164 226 q-11 14 -4 28.5zM399 385q0 -164 140 -164q139 0 139 164v256q0 164 -139 164q-140 0 -140 -164v-256z" />
<glyph unicode="&#xf3;" horiz-adv-x="1077" d="M123 389v246q0 204 108 306.5t308 102.5t307.5 -102.5t107.5 -306.5v-246q0 -204 -107.5 -306.5t-307.5 -102.5t-308 102.5t-108 306.5zM399 385q0 -164 140 -164q139 0 139 164v256q0 164 -139 164q-140 0 -140 -164v-256zM410 1181q-6 14 2 29l116 226q8 16 23.5 27.5 t32.5 11.5h252q18 0 24.5 -14.5t-4.5 -28.5l-164 -226q-30 -39 -55 -39h-203q-18 0 -24 14z" />
<glyph unicode="&#xf4;" horiz-adv-x="1077" d="M123 389v246q0 204 108 306.5t308 102.5t307.5 -102.5t107.5 -306.5v-246q0 -204 -107.5 -306.5t-307.5 -102.5t-308 102.5t-108 306.5zM221 1145v176q0 5 1 9t3.5 7.5t4.5 5.5t6.5 5t7 4t8.5 4l8 4l227 115q30 15 50 15.5t55 -15.5l225 -115l8 -4t8.5 -4t7 -4t6.5 -5 t4.5 -5.5t3.5 -7.5t1 -9v-176q0 -17 -12 -25t-27 -2l-278 119l-279 -119q-15 -6 -27 2t-12 25zM399 385q0 -164 140 -164q139 0 139 164v256q0 164 -139 164q-140 0 -140 -164v-256z" />
<glyph unicode="&#xf5;" horiz-adv-x="1077" d="M123 389v246q0 204 108 306.5t308 102.5t307.5 -102.5t107.5 -306.5v-246q0 -204 -107.5 -306.5t-307.5 -102.5t-308 102.5t-108 306.5zM221 1217v147q0 31 39 66q6 5 17 12.5t45.5 20t70.5 12.5q54 0 111 -18.5t103.5 -37t74.5 -18.5q25 0 58 12.5t53 24.5l20 12 q16 6 29.5 -1t13.5 -24v-145q0 -39 -39 -66q-6 -5 -17 -12.5t-45.5 -20t-70.5 -12.5q-55 0 -153.5 37t-135.5 37q-25 0 -58.5 -12.5t-54.5 -24.5l-20 -12q-15 -7 -28 -0.5t-13 23.5zM399 385q0 -164 140 -164q139 0 139 164v256q0 164 -139 164q-140 0 -140 -164v-256z" />
<glyph unicode="&#xf6;" horiz-adv-x="1077" d="M123 389v246q0 204 108 306.5t308 102.5t307.5 -102.5t107.5 -306.5v-246q0 -204 -107.5 -306.5t-307.5 -102.5t-308 102.5t-108 306.5zM176 1217v198q0 17 11 28t28 11h199q17 0 28 -11t11 -28v-198q0 -17 -11 -28t-28 -11h-199q-17 0 -28 11t-11 28zM399 385 q0 -164 140 -164q139 0 139 164v256q0 164 -139 164q-140 0 -140 -164v-256zM627 1217v198q0 17 11 28t28 11h198q17 0 28 -11t11 -28v-198q0 -17 -11 -28t-28 -11h-198q-17 0 -28 11t-11 28z" />
<glyph unicode="&#xf7;" d="M102 633v168q0 17 11 28t28 11h793q17 0 28 -11t11 -28v-168q0 -17 -11 -28t-28 -11h-793q-17 0 -28 11t-11 28zM399 254v199q0 17 11 28t28 11h199q17 0 28 -11t11 -28v-199q0 -17 -11 -28t-28 -11h-199q-17 0 -28 11t-11 28zM399 981v199q0 17 11 28t28 11h199 q17 0 28 -11t11 -28v-199q0 -17 -11 -28t-28 -11h-199q-17 0 -28 11t-11 28z" />
<glyph unicode="&#xf8;" horiz-adv-x="1077" d="M123 389v246q0 204 108 306.5t308 102.5q38 0 100 -8l55 156q15 37 41 37h103q17 0 25.5 -12t2.5 -27l-73 -207q161 -98 161 -348v-246q0 -204 -107.5 -306.5t-307.5 -102.5q-39 0 -101 8l-57 -158q-14 -35 -41 -35h-102q-17 0 -26 12t-3 27l74 209q-160 104 -160 346z M399 385q0 -27 7 -59l169 475q-20 4 -36 4q-140 0 -140 -164v-256zM502 225q24 -4 37 -4q139 0 139 164v256q0 34 -6 61z" />
<glyph unicode="&#xf9;" d="M123 328v657q0 17 11 28t28 11h198q17 0 28 -11t11 -28v-616q0 -66 27 -99.5t92 -33.5q70 0 158 43v706q0 17 11 28t28 11h198q17 0 28 -11t11 -28v-946q0 -17 -11 -28t-28 -11h-178q-17 0 -28 11t-11 28v29q-123 -88 -266 -88q-165 0 -236 90.5t-71 257.5zM215 1460.5 q7 14.5 25 14.5h252q16 0 31.5 -11.5t23.5 -27.5l117 -226q8 -15 1.5 -29t-24.5 -14h-203q-25 0 -55 39l-164 226q-11 14 -4 28.5z" />
<glyph unicode="&#xfa;" d="M123 328v657q0 17 11 28t28 11h198q17 0 28 -11t11 -28v-616q0 -66 27 -99.5t92 -33.5q70 0 158 43v706q0 17 11 28t28 11h198q17 0 28 -11t11 -28v-946q0 -17 -11 -28t-28 -11h-178q-17 0 -28 11t-11 28v29q-123 -88 -266 -88q-165 0 -236 90.5t-71 257.5zM418 1181 q-6 14 2 29l117 226q8 16 23.5 27.5t31.5 11.5h252q18 0 24.5 -14.5t-4.5 -28.5l-164 -226q-30 -39 -55 -39h-203q-18 0 -24 14z" />
<glyph unicode="&#xfb;" d="M123 328v657q0 17 11 28t28 11h198q17 0 28 -11t11 -28v-616q0 -66 27 -99.5t92 -33.5q70 0 158 43v706q0 17 11 28t28 11h198q17 0 28 -11t11 -28v-946q0 -17 -11 -28t-28 -11h-178q-17 0 -28 11t-11 28v29q-123 -88 -266 -88q-165 0 -236 90.5t-71 257.5zM221 1145v176 q0 5 1 9t3.5 7.5t4.5 5.5t6.5 5t7 4t8.5 4l8 4l227 115q30 15 50 15.5t55 -15.5l225 -115l8 -4t8.5 -4t7 -4t6.5 -5t4.5 -5.5t3.5 -7.5t1 -9v-176q0 -17 -12 -25t-27 -2l-278 119l-279 -119q-15 -6 -27 2t-12 25z" />
<glyph unicode="&#xfc;" d="M123 328v657q0 17 11 28t28 11h198q17 0 28 -11t11 -28v-616q0 -66 27 -99.5t92 -33.5q70 0 158 43v706q0 17 11 28t28 11h198q17 0 28 -11t11 -28v-946q0 -17 -11 -28t-28 -11h-178q-17 0 -28 11t-11 28v29q-123 -88 -266 -88q-165 0 -236 90.5t-71 257.5zM174 1217v198 q0 17 11 28t28 11h199q17 0 28 -11t11 -28v-198q0 -17 -11 -28t-28 -11h-199q-17 0 -28 11t-11 28zM625 1217v198q0 17 11 28t28 11h198q17 0 28 -11t11 -28v-198q0 -17 -11 -28t-28 -11h-198q-17 0 -28 11t-11 28z" />
<glyph unicode="&#xfd;" horiz-adv-x="1024" d="M33 985q-4 17 5.5 28t27.5 11h217q36 0 45 -35l174 -567l192 565q11 37 45 37h217q17 0 27.5 -13t5.5 -28l-454 -1335q-11 -37 -43 -37h-222q-17 0 -26 13t-4 28l112 332zM387.5 1181q-6.5 14 1.5 29l117 226q20 39 55 39h252q18 0 25 -14.5t-4 -28.5l-164 -226 q-30 -39 -56 -39h-202q-18 0 -24.5 14z" />
<glyph unicode="&#xfe;" d="M123 -350v1765q0 17 11 28t28 11h198q17 0 28 -11t11 -28v-430q106 59 215 59q169 0 253.5 -97.5t84.5 -270.5v-287q0 -181 -101.5 -285t-299.5 -104q-49 0 -152 14v-364q0 -17 -11 -28t-28 -11h-198q-17 0 -28 11t-11 28zM399 236h131q146 0 146 163v246q0 154 -135 154 q-56 0 -142 -35v-528z" />
<glyph unicode="&#xff;" horiz-adv-x="1024" d="M33 985q-4 17 5.5 28t27.5 11h217q36 0 45 -35l174 -567l192 565q11 37 45 37h217q17 0 27.5 -13t5.5 -28l-454 -1335q-11 -37 -43 -37h-222q-17 0 -26 13t-4 28l112 332zM150 1217v198q0 17 10.5 28t27.5 11h199q17 0 28 -11t11 -28v-198q0 -17 -11 -28t-28 -11h-199 q-17 0 -27.5 11t-10.5 28zM600 1217v198q0 17 11 28t28 11h199q17 0 28 -11t11 -28v-198q0 -17 -11 -28t-28 -11h-199q-17 0 -28 11t-11 28z" />
<glyph unicode="&#x152;" horiz-adv-x="1658" d="M123 512v430q0 257 128.5 395t373.5 138q139 0 225 -86v26q0 17 11 28t28 11h649q17 0 28 -11t11 -28v-178q0 -17 -11 -28t-28 -11h-412v-328h371q17 0 28 -11t11 -28v-178q0 -17 -11 -28t-28 -11h-371v-358h412q17 0 28 -11t11 -28v-178q0 -17 -11 -28t-28 -11h-649 q-17 0 -28 11t-11 28v31q-87 -90 -225 -90q-245 0 -373.5 138t-128.5 394zM399 532q0 -139 51.5 -217.5t174.5 -78.5q63 0 108 22t70 63t36 92.5t11 118.5v390q0 67 -11 118.5t-36 93t-70 63.5t-108 22q-123 0 -174.5 -79t-51.5 -218v-390z" />
<glyph unicode="&#x153;" horiz-adv-x="1619" d="M123 389v246q0 204 108 306.5t308 102.5q194 0 290 -96q104 96 275 96q104 0 183.5 -33.5t126.5 -94t70 -137t23 -169.5v-172q0 -17 -11 -28t-28 -11h-510q11 -86 59 -127t142 -41q49 0 116 6.5t109 13.5l43 7q39 3 39 -33v-176q0 -38 -39 -41q-149 -28 -284 -28 q-202 0 -312 98q-98 -98 -292 -98q-200 0 -308 102.5t-108 306.5zM399 385q0 -164 140 -164q139 0 139 164v256q0 164 -139 164q-140 0 -140 -164v-256zM954 598h297v29q0 93 -32 139.5t-111 46.5q-84 0 -118 -52.5t-36 -162.5z" />
<glyph unicode="&#x178;" horiz-adv-x="1177" d="M39 1411q-6 16 2.5 29.5t26.5 13.5h235q11 0 19 -6.5t11.5 -13t8.5 -19.5l248 -627l246 627q5 14 8.5 20t11 12.5t18.5 6.5h236q18 0 26.5 -13.5t2.5 -29.5l-412 -950v-422q0 -17 -11 -28t-28 -11h-199q-17 0 -27.5 11t-10.5 28v422zM225 1575v199q0 17 11 27.5t28 10.5 h199q17 0 28 -10.5t11 -27.5v-199q0 -17 -11 -28t-28 -11h-199q-17 0 -28 11t-11 28zM676 1575v199q0 17 11 27.5t28 10.5h198q17 0 28 -10.5t11 -27.5v-199q0 -17 -11 -28t-28 -11h-198q-17 0 -28 11t-11 28z" />
<glyph unicode="&#x2c6;" horiz-adv-x="839" d="M102 1145v176q0 5 1 9t3.5 7.5t4.5 5.5t6.5 5t7 4t8.5 4l8 4l228 115q30 15 49.5 15.5t54.5 -15.5l225 -115l8 -4t8.5 -4t7 -4t6.5 -5t4.5 -5.5t3.5 -7.5t1 -9v-176q0 -17 -12 -25t-27 -2l-278 119l-279 -119q-15 -6 -27 2t-12 25z" />
<glyph unicode="&#x2dc;" horiz-adv-x="839" d="M102 1217v147q0 31 39 66q6 5 17 12.5t45.5 20t70.5 12.5q54 0 111 -18.5t103.5 -37t74.5 -18.5q25 0 58 12.5t53 24.5l20 12q16 6 29.5 -1t13.5 -24v-145q0 -39 -39 -66q-6 -5 -17 -12.5t-45.5 -20t-70.5 -12.5q-55 0 -153.5 37t-135.5 37q-25 0 -58.5 -12.5 t-53.5 -24.5l-21 -12q-15 -7 -28 -0.5t-13 23.5z" />
<glyph unicode="&#x2000;" horiz-adv-x="959" />
<glyph unicode="&#x2001;" horiz-adv-x="1918" />
<glyph unicode="&#x2002;" horiz-adv-x="959" />
<glyph unicode="&#x2003;" horiz-adv-x="1918" />
<glyph unicode="&#x2004;" horiz-adv-x="639" />
<glyph unicode="&#x2005;" horiz-adv-x="479" />
<glyph unicode="&#x2006;" horiz-adv-x="319" />
<glyph unicode="&#x2007;" horiz-adv-x="319" />
<glyph unicode="&#x2008;" horiz-adv-x="239" />
<glyph unicode="&#x2009;" horiz-adv-x="383" />
<glyph unicode="&#x200a;" horiz-adv-x="106" />
<glyph unicode="&#x2010;" horiz-adv-x="716" d="M102 633v168q0 17 11 28t28 11h434q17 0 28 -11t11 -28v-168q0 -17 -11 -28t-28 -11h-434q-17 0 -28 11t-11 28z" />
<glyph unicode="&#x2011;" horiz-adv-x="716" d="M102 633v168q0 17 11 28t28 11h434q17 0 28 -11t11 -28v-168q0 -17 -11 -28t-28 -11h-434q-17 0 -28 11t-11 28z" />
<glyph unicode="&#x2012;" horiz-adv-x="716" d="M102 633v168q0 17 11 28t28 11h434q17 0 28 -11t11 -28v-168q0 -17 -11 -28t-28 -11h-434q-17 0 -28 11t-11 28z" />
<glyph unicode="&#x2013;" horiz-adv-x="1249" d="M102 633v168q0 17 11 28t28 11h967q17 0 28 -11t11 -28v-168q0 -17 -11 -28t-28 -11h-967q-17 0 -28 11t-11 28z" />
<glyph unicode="&#x2014;" horiz-adv-x="1454" d="M102 633v168q0 17 11 28t28 11h1172q17 0 28 -11t11 -28v-168q0 -17 -11 -28t-28 -11h-1172q-17 0 -28 11t-11 28z" />
<glyph unicode="&#x2018;" horiz-adv-x="501" d="M102 848v237l78 330q10 39 43 39h103q35 0 32 -37l-41 -311h43q17 0 28 -11t11 -28v-219q0 -17 -11 -28t-28 -11h-219q-17 0 -28 11t-11 28z" />
<glyph unicode="&#x2019;" horiz-adv-x="501" d="M102 1196v219q0 17 11 28t28 11h219q17 0 28 -11t11 -28v-237l-77 -330q-10 -39 -43 -39h-103q-36 0 -33 37l41 311h-43q-17 0 -28 11t-11 28z" />
<glyph unicode="&#x201a;" horiz-adv-x="501" d="M102 39v219q0 17 11 28t28 11h219q17 0 28 -11t11 -28v-238l-77 -329q-10 -39 -43 -39h-103q-36 0 -33 37l41 311h-43q-17 0 -28 11t-11 28z" />
<glyph unicode="&#x201c;" horiz-adv-x="921" d="M102 848v237l78 330q10 39 43 39h103q35 0 32 -37l-41 -311h43q17 0 28 -11t11 -28v-219q0 -17 -11 -28t-28 -11h-219q-17 0 -28 11t-11 28zM522 848v237l78 330q10 39 43 39h102q36 0 33 -37l-41 -311h43q17 0 28 -11t11 -28v-219q0 -17 -11 -28t-28 -11h-219 q-17 0 -28 11t-11 28z" />
<glyph unicode="&#x201d;" horiz-adv-x="921" d="M102 1196v219q0 17 11 28t28 11h219q17 0 28 -11t11 -28v-237l-77 -330q-10 -39 -43 -39h-103q-36 0 -33 37l41 311h-43q-17 0 -28 11t-11 28zM522 1196v219q0 17 11 28t28 11h219q17 0 28 -11t11 -28v-237l-78 -330q-10 -39 -43 -39h-102q-36 0 -33 37l41 311h-43 q-17 0 -28 11t-11 28z" />
<glyph unicode="&#x201e;" horiz-adv-x="921" d="M102 39v219q0 17 11 28t28 11h219q17 0 28 -11t11 -28v-238l-77 -329q-10 -39 -43 -39h-103q-36 0 -33 37l41 311h-43q-17 0 -28 11t-11 28zM522 39v219q0 17 11 28t28 11h219q17 0 28 -11t11 -28v-238l-78 -329q-10 -39 -43 -39h-102q-36 0 -33 37l41 311h-43 q-17 0 -28 11t-11 28z" />
<glyph unicode="&#x2022;" horiz-adv-x="563" d="M102 592v280q0 17 11 28t28 11h281q17 0 28 -11t11 -28v-280q0 -17 -11 -28t-28 -11h-281q-17 0 -28 11t-11 28z" />
<glyph unicode="&#x2026;" horiz-adv-x="1341" d="M102 39v219q0 17 11 28t28 11h219q17 0 28 -11t11 -28v-219q0 -17 -11 -28t-28 -11h-219q-17 0 -28 11t-11 28zM522 39v219q0 17 11 28t28 11h219q17 0 28 -11t11 -28v-219q0 -17 -11 -28t-28 -11h-219q-17 0 -28 11t-11 28zM942 39v219q0 17 11 28t28 11h219 q17 0 28 -11t11 -28v-219q0 -17 -11 -28t-28 -11h-219q-17 0 -28 11t-11 28z" />
<glyph unicode="&#x202f;" horiz-adv-x="383" />
<glyph unicode="&#x2039;" horiz-adv-x="706" d="M112.5 675.5q-0.5 17.5 16.5 49.5l156 281q19 38 49 38h221q17 0 25.5 -11.5t1.5 -26.5l-183 -330l183 -330q7 -15 -1.5 -27t-25.5 -12h-221q-30 0 -49 39l-156 281q-16 31 -16.5 48.5z" />
<glyph unicode="&#x203a;" horiz-adv-x="706" d="M125 346l182 330l-182 330q-7 15 1.5 26.5t25.5 11.5h221q30 0 49 -38l156 -281q17 -31 17 -50t-17 -48l-156 -281q-20 -39 -49 -39h-221q-17 0 -25.5 12t-1.5 27z" />
<glyph unicode="&#x205f;" horiz-adv-x="479" />
<glyph unicode="&#x20ac;" horiz-adv-x="1024" d="M14 469l15 158q2 18 12 28.5t27 10.5h127v122h-127q-17 0 -26 10.5t-7 28.5l14 158q2 18 12 28.5t27 10.5h111q20 219 146.5 335t350.5 116q48 0 105 -5.5t90 -11.5l33 -6q39 -3 39 -41v-182q0 -36 -41 -33q-134 16 -226 16q-98 0 -149.5 -48.5t-67.5 -139.5h385 q17 0 26 -10.5t7 -28.5l-14 -158q-2 -18 -12 -28.5t-27 -10.5h-373v-122h373q17 0 26 -10.5t7 -28.5l-15 -158q-2 -18 -12 -28.5t-27 -10.5h-344q16 -91 70 -139.5t158 -48.5q41 0 100 5t98 10l39 5q39 3 39 -33v-184q0 -38 -39 -41q-139 -24 -248 -24q-224 0 -350.5 116 t-146.5 334h-152q-17 0 -26 10.5t-7 28.5z" />
<glyph unicode="&#x2122;" horiz-adv-x="1914" d="M61 1237v178q0 17 11 28t28 11h619q17 0 28 -11t11 -28v-178q0 -17 -11 -28t-28 -11h-170v-432q0 -17 -11 -28t-28 -11h-199q-17 0 -28 11t-11 28v432h-172q-17 0 -28 11t-11 28zM819 766v649q0 17 11 28t28 11h250q30 0 49 -39l160 -313l158 313q19 39 49 39h250 q17 0 27.5 -11t10.5 -28v-649q0 -17 -10.5 -28t-27.5 -11h-199q-17 0 -28 11t-11 28v256l-94 -195q-20 -39 -47 -39h-158q-27 0 -47 39l-94 195v-256q0 -17 -11 -28t-28 -11h-199q-17 0 -28 11t-11 28z" />
<glyph unicode="&#x25fc;" horiz-adv-x="1024" d="M0 0v1024h1024v-1024h-1024z" />
</font>
</defs>
</svg>
